<svg version="1.2" xmlns="http://www.w3.org/2000/svg" viewBox="0 0 400 196" width="400" height="196"><style>.a{fill:#07135e}.b{fill:#fbfbfb}.c{fill:#f9b004}.d{fill:#949cba}.e{fill:#b97404}</style><path fill-rule="evenodd" class="a" d="m143 130.9c0.1 2.5 0 4.5-0.1 4.5-0.2 0-0.3-0.1-0.3-0.3 0-1-4.1-1.8-6.2-1.2-5.6 1.5-7.8 9.8-3.9 14.6 2.2 2.6 6.5 3.4 9.2 1.8 1.6-1 1.7-1 1.7 0 0 0.6 0.2 0.8 1.7 0.8h1.8v-12.3-12.3h-2-2zm169.9 0c0.1 2.4 0.1 4.4 0 4.4-0.1 0-0.5-0.3-1.1-0.7-5.9-4.7-13.7 4.2-10.5 11.9 1.7 4 6.7 5.9 10.3 3.7 1.3-0.8 1.3-0.8 1.3 0 0 0.7 0.2 0.8 1.9 0.8h2v-12.3-12.3h-2-2zm-241.8-3.7c-2.3 1.2-0.9 4.7 1.7 4.1 2-0.5 2.2-3.2 0.4-4.1-0.6-0.2-1.1-0.4-1.1-0.4 0 0-0.5 0.2-1 0.4zm142.7 0.5c-2.1 2.1 0.4 4.9 2.9 3.1 1-0.7 1.1-2.2 0-3.3-1-1-1.7-0.9-2.9 0.2zm-156.7 0.1c-9.9 2.9-10.5 19.2-0.9 22.6 2.5 1 10 0.6 10.7-0.5 0.5-0.8-0.6-3.3-1.3-3-7.5 3.3-14-2.8-11.6-10.8 1.3-4.4 5.8-6.5 10.6-4.9 0.8 0.4 1.6 0.6 1.6 0.5 0.2-0.2 0.9-3.2 0.7-3.3-1-1.1-6.9-1.4-9.8-0.6zm57.3 11.5v11.7h6.8 6.8l0.1-1.6 0.2-1.5-4.8-0.1-4.9-0.1v-3.5l-0.1-3.4h4.4 4.4v-1.7-1.8h-4.3-4.2l-0.2-3.2c-0.1-3.8-0.6-3.4 4.8-3.4h4.5v-1.6-1.6h-6.8-6.7zm-33.7-9.6c-1.4 0.3-1.5 0.4-1.5 2.3v1.9h-1.3c-1.4 0-1.4 0-1.4 1.5 0 1.6 0 1.6 1.3 1.6h1.4l0.1 6c0.2 7.7 1 8.8 6.2 8.1 1.7-0.2 1.8-0.3 1.9-1.7l0.1-1.5-1.5 0.3c-2.6 0.4-2.8-0.2-2.8-6.2v-5h2.3 2.3v-1.6-1.5h-2.4-2.4l0.1-2.4c0.1-2.5 0.2-2.5-2.4-1.8zm123.1 0c-1.5 0.3-1.5 0.4-1.5 2.3v1.9h-1.4c-1.3 0-1.3 0-1.3 1.5 0 1.6 0 1.6 1.3 1.6h1.4v5.4c0 8.1 1.9 10.3 7.3 8.5 1.9-0.6 1.2-2.9-0.8-2.8-2.5 0-2.6-0.2-2.9-6l-0.2-5.1h2.6 2.6v-1.6-1.5h-2.6-2.5v-2.4c0-1.3-0.1-2.3-0.3-2.3-0.1 0-0.9 0.2-1.7 0.5zm-29 4.1c-8.8 2.2-8.8 15.4-0.1 17.3 2 0.4 5.9-0.1 6.6-0.8 0.8-0.8-0.2-2.8-1.2-2.5-4.5 1.4-7.9-0.9-7.9-5.3 0-3.8 2.2-5.8 6.2-5.4l2.4 0.2 0.3-1.2c0.5-1.6 0.4-1.7-1.9-2.2-2.2-0.5-2.7-0.5-4.4-0.1zm13.4-0.1c-2.6 0.5-3.5 1-3.5 1.9 0 2 0.2 2.1 2.7 1.5 3.8-1 5.8-0.2 6.5 2.8l0.3 1.1-1.8-0.3c-6.8-1-11.8 4.4-8 8.6 2.1 2.2 5.5 2.6 8.4 0.9 1.3-0.7 1.3-0.7 1.3 0.1 0 0.6 0.3 0.8 1.7 0.8h1.8v-6.6c0-9.3-2.4-12.1-9.4-10.8zm38.5 0.1c-10.8 2.8-7.2 19.7 3.6 17.2 9.4-2.1 8.8-16.2-0.7-17.3-0.9-0.1-2.3 0-2.9 0.1zm19.9 0.3c-0.8 0.3-1.8 0.9-2.2 1.4l-0.7 0.8v-1.2c0-1.2-0.1-1.2-1.8-1.2h-1.7v8.6 8.6h1.9 2v-5.7c0-7.2 0.5-8.4 3.7-8.4 2.8 0 3.1 0.6 3.3 7.8l0.1 6.3h1.8 1.8l-0.2-7.2c-0.2-8-0.4-8.7-3.1-9.8-1.9-0.8-2.8-0.8-4.9 0zm23.3-0.4c-3.6 0.6-4 0.9-3.7 2.4 0.3 1.9 0.2 1.8 2.1 1.1 3.6-1.3 7 0 7 2.6 0 0.9-0.1 0.9-2.8 0.9-6.1 0-9.4 3.7-7.1 8 1.3 2.5 6.4 3.4 8.8 1.6 1.4-1 1.5-1 1.3 0-0.2 0.7-0.1 0.8 1.8 0.8h2l-0.1-6.6c-0.2-9.4-2.4-12-9.3-10.8zm19.7 0.4c-0.9 0.3-1.9 0.9-2.3 1.4l-0.6 0.8v-1.2c0-1.2-0.1-1.2-1.8-1.2h-1.7v8.6 8.6h1.7 1.8v-4.8c0-7.3 0.8-9.3 3.8-9.3 3 0 3.6 1.3 3.6 8.9v5.2h1.7 1.8v-6.8c0-9.5-2.2-12.4-8-10.2zm-219.3 8.4v8.6h1.9 2v-8.6-8.6h-2-1.9zm18.9-7.9c3.5 8.8 6.1 16.5 5.9 17.4-0.4 1.6-1.7 2.7-3.1 2.5-1.2-0.1-1.6 0.4-1.8 2.3-0.1 1.8 5.6 0.6 7.1-1.4 0.5-0.8 7.1-17.8 8-20.8 0.2-0.6-0.1-0.7-1.8-0.7h-1.9l-2 6c-1.2 3.4-2.1 6.1-2.2 6.1 0 0-1-2.7-2.2-6.1l-2.1-6h-2.1c-1.8 0-2 0.1-1.8 0.7zm61.6 5.8c0.2 7.1 0.6 8.7 2.4 9.9 2.2 1.4 6.2 1.1 8-0.5l0.9-0.8v1c0 1 0.1 1.1 1.7 1.1h1.8v-8.6-8.6h-1.9-2l-0.1 5.8c-0.2 7-0.6 8-3.5 8.2-3 0.2-3.2-0.4-3.4-7.8l-0.1-6.2h-2-2zm62.5 2v8.6h1.9 2v-8.6-8.6h-2-1.9zm-71.5-4.8c1.8 1.5 1.8 7.4 0 9.2-3.8 3.8-8.9-2-6.6-7.5 1.1-2.6 4.4-3.5 6.6-1.7zm89.4 0c2.6 2.1 2.3 8.1-0.4 10.1-2.2 1.5-5.4 0-6.2-2.9-1.6-5.7 2.7-10.5 6.6-7.2zm80.8 0.2c1.5 1.5 1.4 7.7-0.3 9.1-4.3 3.6-9.4-3.2-6.2-8.3 1.3-2.2 4.5-2.6 6.5-0.8zm-118 6c0.4 1-0.7 3.3-1.8 3.9-3.3 1.7-6.8-1.5-4.1-3.7 1.3-1 5.5-1.2 5.9-0.2zm81.4 0.8c0 3.4-5.5 5.2-6.5 2-0.7-2.2 0.8-3.3 4.2-3.4h2.3zm-152.4 23.8v11.9h2 2v-11.9-11.9h-2-2zm156-11.5c-2.7 0.6-4 2.4-4 5.7 0 1.2-0.1 1.3-1.4 1.3-1.1 0-1.3 0.1-1.3 0.9 0 1.5 0.5 2 1.7 2h1.1l-0.1 6.8v6.7h1.9 2v-6.9-6.8l1.9 0.1 1.8 0.1 0.1-1.4 0.2-1.5h-2-2v-1.5q0-3.1 2.6-2.7c1.2 0.2 2.5-1.6 1.9-2.4-0.4-0.4-3.3-0.6-4.4-0.4zm9.4 0.6c-1.3 0.9-2.1 2.6-2.1 4.6 0 1.8 0 1.8-1.3 1.8-1.4 0-1.4 0.1-1.4 1.5 0 1.5 0 1.5 1.4 1.3l1.3-0.1v6.8 6.9h1.8 1.7l0.1-6.7 0.1-6.8h1.9 1.9v-1.4l-0.1-1.5h-1.9c-2 0-2 0-2-1.3 0-2 1-3.1 2.6-2.9 1.3 0.1 2.5-1.4 1.9-2.5-0.4-0.6-5-0.4-5.9 0.3zm8.1 0.2c-2 1.9 0.6 5.1 2.8 3.4 1.2-0.9 1.2-2.2 0.2-3.2-1.2-1.2-2-1.3-3-0.2zm-243.1-0.1l-2.2 0.1v11.3 11.4l5.1-0.2c9.7-0.3 13.1-3 13.5-10.6 0.5-9-4.7-12.8-16.4-12zm203 0.1c-10 3-10.2 19.6-0.3 22.5 9.9 2.8 17.6-6.3 13.8-16.4-1.8-4.9-8.1-7.8-13.5-6.1zm-23.5 2c-1.3 0.4-1.3 0.5-1.2 2.3l0.1 1.9h-1.4c-1.4 0-1.5 0.1-1.5 1.4 0 1.3 0.1 1.3 1.3 1.3h1.4l0.1 5.9c0.2 7.5 0.5 8 5.2 8 3.3 0 3.3 0 3.1-1.8-0.2-1.3-0.3-1.3-1.7-1.2-2.5 0.2-2.8-0.4-2.8-6v-4.9l2.4 0.1 2.3 0.1v-1.4-1.5h-2.3-2.4v-2.3c0-2.6-0.1-2.7-2.6-1.9zm-170.6 2.1c2.3 1.2 3.3 3.4 3.3 7 0 5.4-2.5 8-7.8 8h-2.5l0.1-8.1 0.1-8 2.6 0.1c1.7 0.1 3.2 0.5 4.2 1zm201-0.1c4.2 2.8 4.3 11.5 0.2 14.5-5.8 4.2-12.7-3.7-9.8-11.3 1.4-3.8 6.3-5.4 9.6-3.2zm-185.8 2.4c-6.1 2.2-6.6 12.6-0.8 15.6 3.8 1.9 9.9 1 9.7-1.5-0.1-1.9-0.1-1.9-1.5-1.2-3.3 1.7-8.3-0.4-8.3-3.5 0-0.1 2.3-0.2 5.2-0.2h5.2l0.3-1.1c1.2-5.5-4.2-10-9.8-8.1zm32.5 0c-8 2.8-5.9 15.6 2.6 16.5 4.3 0.4 6.7-0.6 6.3-2.8l-0.2-1.3-1.4 0.5c-3.5 1.3-6.5 0.5-7.6-2l-0.7-1.5 5.4-0.2 5.3-0.2 0.1-1.5c0.5-5.7-4.4-9.4-9.8-7.5zm25.5-0.1c-7 2-7.5 13.2-0.6 16.1 5.8 2.4 11.2-1.5 11.2-8 0-6.3-4.6-9.8-10.6-8.1zm19.5 0.4c-1.7 0.9-1.9 0.9-1.9 0.2 0-0.6-0.3-0.7-1.9-0.7h-2v11.5 11.6h2 1.9v-3.9-3.9l1.5 0.8c5.4 2.7 10.4-1.1 10.4-7.9 0-6.8-4.7-10.4-10-7.7zm19.7-0.6c-0.4 0.1-1.3 0.6-1.8 1.1l-1 0.9v-0.9c0-0.9-0.2-1-2-1h-1.9v8.2 8.2h1.9 2v-5.1c0-6.1 0.4-7.5 2.5-8.1 3.1-1.1 3.7 0.3 3.7 7.5v5.7h2 1.9v-5.4c0-7 0.9-8.7 4.3-7.9 1.6 0.4 2 1.7 2 7.7v5.6h2 2l-0.2-6.5c-0.2-7.5-0.5-8.8-2.9-9.7-2.4-1.1-6.5-0.2-7.5 1.6-0.3 0.6-0.4 0.6-0.8-0.2-0.8-1.5-3.4-2.2-6.2-1.7zm24.7 0.4c-5.3 2.5-6.3 10.8-1.7 14.7 3.2 2.8 11.7 2.2 11.1-0.7-0.4-1.8-0.5-1.8-2-1.2-3 1.3-6.2 0.5-7.4-1.8-1-1.9-0.9-1.9 4.7-1.9h5.3v-2.2c0-5.7-5.1-9.2-10-6.9zm20-0.3c-0.6 0.2-1.6 0.7-2.1 1.2l-0.9 0.9v-1c0-1-0.1-1.1-1.8-1.1h-1.9v8.2 8.2h1.8 1.8l0.2-5.6c0.1-6.2 0.5-7.2 2.9-7.9 3.1-0.7 4 1.2 4 8.5v5h1.8 1.8v-6.3c0-9.2-2-11.8-7.6-10.1zm89.1 0.2c-7.1 2.5-7.4 13.5-0.3 16 3 1.1 7.8 0.5 7.8-0.9 0-1.8-0.4-2.4-1.4-2-3.9 1.5-7.6-0.9-7.6-4.9 0-4.1 3.4-6.6 7-5.3 1.1 0.3 2-0.7 2-2.4 0-1-5.1-1.4-7.5-0.5zm14 0c-2.9 1-4.9 4.3-4.9 8 0 6.6 5.4 10.1 12.4 8l1.9-0.6-0.3-1.5-0.4-1.5-1.3 0.5c-2.9 1.2-6.6 0.5-7.5-1.4-1.2-2.4-1.4-2.3 4.6-2.3h5.4v-1.9c-0.1-5.9-4.5-9.2-9.9-7.3zm-231.8 6.5c1.3 3.8 2.6 7.4 2.8 8.2 0.5 1.3 0.6 1.3 2.7 1.4l2.2 0.1 1-3.2c0.6-1.8 1.9-5.5 3-8.2l1.8-5h-2-2l-2 6.2-2 6.1-2-6.1-2.1-6.2h-1.9-1.9zm205.4 1.5v8.2h2 1.9v-8.2-8.2h-1.9-2zm-214.5-5.5c1.2 0.5 2.4 2.1 2.4 3.3 0 0.5-0.6 0.6-3.7 0.6-2 0-3.7-0.1-3.7-0.2 0-1.6 1.5-3.2 3.7-4.1 0.1 0 0.6 0.2 1.3 0.4zm58.8 0.5c2.4 1.2 2.4 8.7-0.1 10-3.5 1.9-6.6-1.1-6.2-5.9 0.4-3.9 3.1-5.8 6.3-4.1zm187.6 0.4c0.3 0.3 0.6 1 0.8 1.7l0.2 1.3h-3.7-3.7l0.3-1.2c0.8-2.8 4.1-3.8 6.1-1.8zm-213.3-0.7c0.7 0.3 1.7 2.2 1.7 3.1 0 0.5-0.6 0.6-3.7 0.6-2 0-3.7-0.1-3.7-0.2 0-2.5 3.1-4.4 5.7-3.5zm44.8 0.6c3.6 2.8 1.9 10.1-2.4 10.1-2.9 0-3.9-1.4-3.9-5.3 0-5 3.1-7.4 6.3-4.8zm45.4-0.1c0.3 0.4 0.8 1.3 1 2l0.3 1.2h-3.7-3.7l0.2-1.1c0.7-2.6 4.2-3.9 5.9-2.1z"/><path fill-rule="evenodd" class="b" d="m0 112v200h200 200v-200-200h-200-200zm88.1-97.9c6.2 1.3 12.3 4.6 16.5 9l2.1 2.1-2.9 4.4c-1.6 2.5-3.6 5.6-4.4 7-2.2 3.8-2.1 3.7-3.3 2.6-21.3-19.6-51 6-43 37 5.1 19.9 27.2 27.3 41.7 14.1l2.4-2.1 1.9 2.8c1 1.6 3.2 4.7 4.9 6.9l3.1 4-2.5 2.6c-8.8 9-25.2 13.7-37.4 10.7-18-4.4-30-15.6-35-32.7-11.3-39.1 18.9-76.1 55.9-68.4zm77.9 9.4v10h-17-17v9.5 9.6l13.8 0.1c13.4 0.1 13.8 0.1 15.4 1 5.3 2.8 6.4 10.8 2 15.3l-1.5 1.6v5.3c0 6.7-0.9 8.8-4 8.9-3.6 0.1-4.6-1.6-4.6-8.1v-4.9h-1.7-1.8v4.2c0 5.6-1 7.3-4.6 7.8-3.9 0.5-5.5-1.9-5.5-7.8v-4.2h-3.8-3.7v11.9 11.9h17.4 17.4v10 9.9h-27.7-27.8v-51-50.9h27.4 27.3zm51.6-9.1c11.4 2.5 22.6 9.2 28.6 17.2 17.7 23.3 12.9 60.8-9.6 75.4-11 7.2-17.7 8.5-45.5 8.5h-16.9v-51.1-51l20.2 0.2c16.8 0.2 20.8 0.3 23.2 0.8zm111.7-0.3c42.2 6.4 58.7 59.3 28 89.8-33.5 33.3-89.9 8-88.4-39.6 0.9-30.9 29.7-54.9 60.4-50.2zm-133.6 50.7v33.1h4.8c24.8-0.1 36.6-12 35.3-36-1-20-11.1-29.4-32-29.9l-8.1-0.2zm122-17.7c-7.2 2.9-8.9 11.4-3.3 16.4l1.5 1.4-0.8 2.9c-5.1 16.2-6.1 19.5-6.1 19.6 0 0.2 5.3 0.3 11.9 0.3h11.8l-1.3-4.6c-3.8-12.6-5.5-18.5-5.2-18.5 0.6 0 3.2-2.9 3.9-4.4 3.7-7.2-4.8-16.1-12.4-13.1zm-170.6 91.5v12.3h-2.1c-1.8 0-2-0.1-2-0.7v-0.8l-1.1 0.7c-6.5 4.8-14.2-4.6-10.3-12.6 1.7-3.5 6.5-5.2 9.9-3.4l1.5 0.7v-4.2-4.3h2 2.1zm169.9 0v12.3h-2.1c-1.8 0-2-0.1-2-0.8v-0.8l-1 0.8c-3.6 2.8-9.6 0.3-11-4.6-2.2-7.6 3.7-14.3 10.2-11.4l1.8 0.8v-4.3-4.3h2 2.1zm-243.3-11.3c1.7 1.2 0.7 4.1-1.4 4.1-2.2 0-3.3-2.8-1.5-4.1 0.5-0.3 1.1-0.6 1.5-0.6 0.3 0 1 0.3 1.4 0.6zm143 0c1.7 1.2 0.7 4.1-1.4 4.1-2.2 0-3.2-2.4-1.6-3.9 0.9-0.9 1.8-1 3-0.2zm-150.6 0.6c1.2 0.6 1.2 0.5 0.7 2.5q-0.4 1.5-1 1.2c-7.7-2.9-13.6 2-11.9 9.9 1.1 4.8 6.9 7.6 11.3 5.4 1.3-0.7 1.4-0.7 1.8 1.5l0.2 1.6-1.8 0.6c-4.9 1.4-10.7 0.1-13.3-2.9-4.2-4.9-3.6-14.2 1.1-18 3.1-2.4 9.5-3.4 12.9-1.8zm62 1.4v1.7h-4.7-4.7v3.1 3.2h4.3 4.3v1.7 1.8h-4.3-4.3v3.3 3.3l4.8 0.1 4.8 0.1 0.1 1.7 0.2 1.6h-7.1-7v-11.7-11.7h6.8 6.8zm-44.9 2.1v2.4h2.3 2.4v1.5 1.6h-2.4-2.3v5c0 5.7 0.1 5.9 2.6 5.9 1.6 0 1.6 0.1 1.8 1.4 0.2 1.7 0.1 1.8-2.6 2-4.7 0.5-5.8-1-6-8.7l-0.2-5.6h-1.1c-0.9 0-1.1-0.2-1.1-0.9 0-0.6-0.1-1.3-0.3-1.6-0.2-0.5 0.1-0.6 1.4-0.6h1.6v-2c0-1.8 0.1-1.9 1.3-2.3 2.5-0.7 2.6-0.6 2.6 1.9zm123 0v2.4h2.4 2.3v1.5 1.6h-2.3-2.4v5c0 5.8 0.2 6.1 2.8 5.9 1.4-0.2 1.5-0.1 1.5 0.7 0 0.5 0.1 1.1 0.3 1.4 0.5 1.3-4.1 1.9-6.3 0.9-1.9-1-2.3-2.1-2.5-8.3l-0.1-5.6h-1.1c-1 0-1.1-0.1-1.3-1.6l-0.1-1.5h1.5 1.4v-2c0-1.8 0.1-1.9 1.3-2.3 2.6-0.7 2.6-0.6 2.6 1.9zm-26.3 2.4c1 0.3 1.7 0.6 1.7 0.7 0 1.2-1 3.2-1.5 2.9-3.5-1.6-7.1 0.3-7.6 3.9-0.7 4.3 1.5 6.7 5.9 6.5l2.8-0.2 0.3 1.1c0.9 4.1-9.3 3.3-11.9-1-4.7-7.6 1.6-16.1 10.3-13.9zm15.1 0.7c2.3 1.4 2.8 2.9 3 10.1l0.1 6.4h-2c-1.7 0-2-0.1-2-0.8 0-0.8 0-0.8-1.1 0-3.7 2.8-9.8 0.3-9.8-4 0-3.6 2.6-5.5 7.5-5.6 2.9 0 3 0 3-0.9 0.1-2.6-2.3-3.6-6.2-2.6-1.3 0.3-2.5 0.6-2.5 0.5-0.1-0.1-0.2-0.7-0.4-1.5-0.3-1.6-0.2-1.6 3.1-2.5 1.8-0.4 6 0.1 7.3 0.9zm36.4-0.7c7.7 2.2 7.5 15-0.3 17.2-5.9 1.6-10.8-2.2-10.8-8.6 0-6.5 5-10.3 11.1-8.6zm20.5 0.3c2.6 1.3 3 2.5 3.1 10.1l0.1 6.8h-2-2.1l0.1-4.6c0.2-8.8-1.8-11.9-5.7-8.5l-1.1 0.9-0.1 6.1-0.1 6.1h-2.1-2.2v-8.6-8.6h2c1.9 0 1.9 0 1.9 1v1.1l0.9-0.9c1.9-1.7 5-2.1 7.3-0.9zm23.9 0.2c3.1 1.6 3.3 2.1 3.4 9.9l0.1 6.8h-1.9c-1.8 0-2-0.1-2-0.8 0-0.8-0.1-0.8-0.6-0.2-2.7 2.7-9 1.1-9.9-2.5-1.2-4.2 2.6-7.4 8.2-7 2.1 0.2 2.3 0.1 2.3-0.7 0-2.5-2.9-3.7-6.5-2.7-2.5 0.7-2.5 0.7-2.7-1.1-0.5-2.5 5.9-3.6 9.6-1.7zm19.1-0.2c2.5 1.3 2.9 2.9 3.1 10.3l0.1 6.6h-2.2-2.2v-6c0-5.5 0-6.1-0.8-7.1-1.1-1.4-3.1-1.4-4.6 0.2l-1.2 1.1v5.9 5.9h-2.1-2.2v-8.6-8.6h2c1.8 0 1.9 0 1.9 1v1.1l0.9-0.9c1.9-1.7 5-2.1 7.3-0.9zm-220.7 8.3v8.6h-1.9-2v-8.6-8.6h2 1.9zm21.2-2.6l2.1 6.1 1.9-6 2-5.9 2.2-0.1 2.2-0.1-3.6 9.7c-5.1 13.7-5.3 13.9-9.2 13.9-2.8 0-2.9-0.1-2.5-1.9 0.2-1.3 0.3-1.4 1.2-1.2 1.2 0.3 2.6-0.6 3.2-2.1 0.5-1.1 0.3-1.8-2.7-9.6-1.7-4.6-3.1-8.4-3.1-8.6 0-0.1 0.9-0.2 2.1-0.2h2.1zm59.3-1.1c0 7.5 0.6 9.1 3.3 9.1 2.8 0 3.1-0.7 3.3-7.8l0.1-6.3h2.1 2.1v8.6 8.6h-1.7c-1.7 0-1.8 0-1.8-1v-1l-1.2 1c-1.9 1.6-5.5 1.9-7.6 0.5-2-1.3-2.3-2.7-2.5-9.9l-0.1-6.8h2 2zm62.5 3.7v8.5h-2-1.9v-8.5-8.6h1.9 2zm-80-5.3c-4.3 2.2-2.8 10.7 2 10.7 5.1 0 5.5-10.2 0.4-11.1-0.6-0.1-1.6 0-2.4 0.4zm89.8-0.1c-3.4 1.8-3.5 8.9-0.1 10.6 3.2 1.7 5.9-0.8 5.9-5.2 0-4.4-2.8-7-5.8-5.4zm80 0.2c-4.2 2.1-2.6 10.6 2.1 10.6 4.4 0 5.7-9 1.6-10.7-1.7-0.8-2-0.7-3.7 0.1zm-118.2 6.3c-2.1 0.9-2 3.5 0.1 4.4 2.4 0.8 4.8-0.9 4.8-3.4v-1.4l-2 0.1c-1.1 0-2.4 0.1-2.9 0.3zm81.9-0.1c-2.8 1.1-2.4 4.1 0.6 4.6 2.3 0.5 5-2.6 3.9-4.4-0.3-0.5-3.5-0.6-4.5-0.2zm-143.8 25.1v12.1h-1.9-2v-12.1-12.1h2 1.9zm156.6-11.5c0.7 0.7-0.9 2.9-1.9 2.7-1.7-0.3-2.7 0.7-2.7 2.6v1.5h2 1.9v1.6 1.6h-1.9-2v6.8 6.9l-1.9-0.1-1.8-0.2-0.1-6.7-0.1-6.7h-1.4c-1.3 0-1.3-0.1-1.3-1.6 0-1.5 0-1.6 1.3-1.6 1.3 0 1.3 0 1.5-2.1 0.3-3.8 2.4-5.5 6.3-5.1 1.1 0.2 2 0.3 2.1 0.4zm10.9-0.1c0.8 0.8-0.4 3.1-1.5 2.8-1.8-0.4-2.7 0.4-2.7 2.4v1.7h1.9 1.9l-0.2 1.6c-0.1 1.6-0.1 1.6-1.8 1.6h-1.8l-0.1 6.7-0.1 6.7h-1.9-1.9l0.1-6.7 0.1-6.7h-1.4c-1.3 0-1.3-0.1-1.5-1.6l-0.1-1.6h1.4 1.5v-2.1c0-3.5 2.3-5.5 6-5.1 1.1 0.1 2 0.3 2.1 0.3zm5.2 0.7c2.1 2.1-1 5.3-3.2 3.2-1.4-1.3-0.4-4 1.5-4 0.5 0 1.3 0.4 1.7 0.8zm-235.9 0.7c4.2 1.6 6.3 5.1 6.3 10.4 0 8.3-4.9 11.9-16 11.9h-2.8v-11.5-11.5l1.2-0.2c2.9-0.4 9.1 0.1 11.3 0.9zm201.7 0c6.1 3 7.5 13.8 2.4 19.1-5.3 5.6-15.6 3.7-18.2-3.3-4.1-10.9 5.7-20.7 15.8-15.8zm-27.5 5.5h2.3v1.6 1.6h-2.3-2.4v4.4c0 5.4 0.4 6.2 2.9 6 2-0.1 2.8 2.5 1 3-5.9 1.6-7.8-0.5-7.8-8.4v-5h-1.3c-1.4 0-1.4-0.1-1.4-1.6 0-1.5 0-1.6 1.4-1.6h1.3v-1.9-1.9l1.9-0.6 1.8-0.5 0.2 2.4 0.1 2.5zm-182.5 4.9v8.1l2.7-0.1c5-0.4 7.1-2.3 7.4-7 0.4-5.7-1.7-8.3-7.3-8.8l-2.8-0.3zm201.8-7.5c-5.5 2.4-5.5 13.1 0.1 15.4 4.7 2 8.7-1.2 9-7.2 0.3-6.6-4-10.4-9.1-8.2zm-173.9 2.8c2.6 1 4.4 4.4 4.1 7.6l-0.1 1.4-5.4 0.1-5.3 0.1 0.4 1.1c0.9 2.8 4.4 4 7.5 2.6 1.8-0.7 1.8-0.7 2.1 1.3l0.2 1.5-1.8 0.5c-7.3 1.8-12.3-1.5-12.4-8.1 0-6.4 5.2-10.4 10.7-8.1zm32.4 0c2.7 1.1 4.2 3.8 4.2 7.3v1.9h-5.3c-5.9 0-6.3 0.2-4.3 2.7 1.5 1.8 4.5 2 7.7 0.7 1.2-0.6 1.6 2.7 0.4 3.3-4.5 2.1-10.8 0.2-12.6-3.8-3.3-7.2 3.1-15 9.9-12.1zm27.1 0.7c5 3.3 4.6 12.3-0.6 15-7.6 4-15.3-4.1-11.4-12 2.1-4.1 8.1-5.6 12-3zm18.5-0.5c5.4 2.8 5.3 13.6-0.3 15.9-1.9 0.8-5.1 0.7-6.6-0.3l-1.3-0.7v4.1 4.1h-2-1.9v-11.8-11.7h1.9c1.8 0 2 0.1 2 0.9 0 0.7 0 0.8 0.7 0.2 1.7-1.6 5.1-1.9 7.5-0.7zm19.1 0.5c1 1 1.1 1.1 1.6 0.4 1.4-1.6 5.3-2.2 7.5-1.1 2.1 1.2 2.6 3.1 2.6 10.3l0.1 6.3h-2-1.9l-0.1-6c-0.2-6.8-0.5-7.7-2.9-7.7-2.7 0-3.3 1.6-3.3 8.5v5.2h-2-1.9v-5.7c0-7.1-0.3-7.8-2.7-7.8-2.9 0-3.3 1-3.5 7.9l-0.1 5.6h-1.9-2v-8.4-8.4h2c1.7 0 1.9 0.1 1.9 0.8 0 0.7 0.1 0.7 1.5-0.2 2-1.4 5.4-1.2 7.1 0.3zm25.4-0.5c2 1 3.1 2.7 3.6 5.4 0.7 3.7 0.8 3.6-5.3 3.6-2.9 0-5.3 0.1-5.3 0.2 0 3.1 3.9 4.9 7.8 3.5 2-0.7 1.9-0.7 2.1 1.2 0.2 4.4-10.7 3.1-13-1.5-3.7-7.8 3-16 10.1-12.4zm18.7 0c2.3 1.4 2.6 2.6 2.6 9.8v6.4h-1.9-2l-0.2-6.1c-0.2-6.9-0.4-7.4-2.7-7.4-3 0-3.3 0.7-3.5 7.5l-0.2 6h-2-1.9l-0.1-8.3-0.1-8.3h1.9c1.9 0 2 0.1 2 1v1l0.9-0.8c1.8-1.8 5-2.1 7.2-0.8zm90.3-0.4c0.8 0.2 1 0.5 0.9 1.6-0.1 1.7-0.4 2-2.3 1.5-3.1-0.9-5.7 0.9-6.2 4.2-0.7 4.4 2.7 7.3 7.1 6 1.3-0.3 1.2-0.4 1.9 2 0.4 1.4-5.5 2.1-8.3 0.9-10.3-4.3-3.8-19.3 6.9-16.2zm14.1 0.5c2.3 1.2 3.5 3.5 3.5 6.6v2.3h-5.5-5.4l0.4 1.1c1.1 3.1 4.4 4 8.6 2.2 0.7-0.3 1.8 2.5 1.2 3-2.2 1.9-9.3 1.4-11.8-0.9-6.8-6.4 0.8-18.6 9-14.3zm-236 1.6c0.4 1.1 1.3 3.8 2 6l1.3 4 2-6.1 1.9-6h2.1 2l-1.4 3.8c-0.7 2.1-2 5.9-2.9 8.4l-1.6 4.7-2.1-0.2-2.2-0.1-2.7-7.5c-1.4-4.2-2.7-7.9-2.9-8.3-0.2-0.7 0-0.8 1.7-0.8h2zm207.1 6.4v8.4h-1.9-2v-8.4-8.4h2 1.9zm-221.6-5.1c-0.3 0.2-0.9 1.1-1.2 1.9l-0.6 1.4h3.7 3.7l-0.2-1.1c-0.6-2.4-3.5-3.7-5.4-2.2zm32 0.6c-1.9 2.3-1.5 2.7 2.5 2.7h3.6l-0.3-1.1c-0.7-2.9-3.9-3.8-5.8-1.6zm25.2-0.1c-3 3-1.4 9.8 2.4 9.8 2.5 0 4.2-2.2 4.2-5.4 0-4.6-3.9-7.2-6.6-4.4zm19.4-0.5c-2.4 1.3-2.8 7.5-0.7 9.3 2.3 1.9 5.4 1.2 6.5-1.5 2.1-5-1.7-10-5.8-7.8zm45.7-0.2c-0.7 0.4-1.9 2.4-1.9 3.1 0 0.3 1.4 0.4 3.6 0.4 3.5 0 3.5 0 3.5-1 0-2.2-3.2-3.7-5.2-2.5zm122.2 0.8c-1.9 2.3-1.5 2.7 2.5 2.7h3.6l-0.3-1.1c-0.7-2.9-3.9-3.8-5.8-1.6z"/><path fill-rule="evenodd" class="c" d="m104.6 23.1l2.1 2.1-2.9 4.4c-1.6 2.5-3.6 5.6-4.4 7-2.2 3.8-2.1 3.7-3.3 2.6-21.3-19.6-51 6-43 37 5.1 19.9 27.2 27.3 41.7 14.1l2.4-2.1 1.9 2.8c1 1.6 3.2 4.7 4.9 6.9l3.1 4-2.5 2.6c-10.4 10.5-26.9 14.1-42.5 9.2-48.3-15.1-39.9-94.1 10.6-100.3 12.1-1.5 24.8 2.4 31.9 9.7zm6.7-9.5h54.7v19.9h-34v19.1l13.8 0.1c13.4 0.1 13.8 0.1 15.4 1 5.3 2.8 6.4 10.8 2 15.3l-1.5 1.6v5.3c0 6.7-0.9 8.8-4 8.9-3.6 0.1-4.6-1.6-4.6-8.1v-4.9h-3.5v4.2c0 5.6-1 7.3-4.6 7.8-3.9 0.5-5.5-1.9-5.5-7.8v-4.2h-7.5v23.8h34.8v19.9h-55.5zm62.9 0l20.2 0.1c21.9 0.2 22.4 0.3 29.2 2.5 24.2 8 37.4 32.7 32.2 60.1-3.5 18.7-14.7 31.6-31.7 36.7-7.4 2.2-12 2.6-33 2.6h-16.9zm198.1 61.6c-7.5 43.5-60.8 59.2-90 26.4-28.6-32-9.4-82.1 33.5-87.7 33.6-4.4 62.4 26.9 56.5 61.3zm-70.7-47.1c-2.1 1.1-3.4 2.8-4 5.3-0.4 1.5-1.1 2.5-3.2 4.6-1.4 1.5-2.6 2.9-2.6 3 0 0.2-0.2 0.4-0.3 0.4-0.2 0-0.2-0.7 0.1-1.5 0.7-1.8 0.8-6.5 0.2-6.1-1.5 0.9-3 5.9-2.4 8.2 0.2 0.8 0.3 1.6 0.1 1.9-0.2 0.2-1.1 1.7-1.9 3.2l-1.5 2.9-0.3-3.4c-0.3-4.9-0.7-5.9-1.6-3.9-1.2 2.6-1.3 6.9-0.2 8.7 0.8 1.4 0.8 1.4 0.1 4.2-0.9 3.9-1.2 4.7-1.3 2.9 0-1.6-1-4.7-2-6.3l-0.6-1.1-0.3 0.9c-0.8 3.2 0 7.8 1.7 9.6 0.7 0.7 0.9 1.5 1 4.3l0.2 3.4-1-2c-0.9-1.8-3.5-4.8-3.8-4.4-1 0.9 1.5 6.8 3.6 8.6 1.2 1.1 1.6 1.8 2.1 3.8 0.3 1.4 0.7 3 0.9 3.6 0.2 0.7-0.1 0.5-1.1-0.8-1.4-1.8-4.8-4.3-5.3-3.8-1.1 1.1 3.7 7.1 6 7.5 1.1 0.2 2.6 2.5 4.4 6.6 0.1 0.2-0.4-0.1-1.2-0.8-1.4-1.2-4.9-2.6-6-2.4-2.1 0.4 4 5.3 7.2 5.6 1.7 0.2 2.1 0.5 3 1.7 0.5 0.8 1.5 2 2.2 2.6q2.4 2.3-0.5 0.9c-1.8-0.9-6.4-1.8-6.8-1.4-1.4 1.4 4.5 3.9 7.9 3.4 1.8-0.3 2-0.2 3.5 1 0.8 0.7 2.4 1.8 3.5 2.5 1.6 1 1.7 1.2 0.7 0.9-1.6-0.4-6.4-0.3-6.9 0.2-1.3 1.4 5.8 2.9 8.6 1.8 1.9-0.6 2-0.6 3.9 0.1 1 0.5 2.5 1 3.2 1.2l1.4 0.3-2.1 0.3c-1.2 0.2-3.1 0.8-4.3 1.3l-2.2 1.1 1.2 0.3c3.4 0.8 7.8 0.1 9.6-1.5 0.6-0.5 3.9-0.4 3.9 0.2 0 0.1-0.7 0.9-1.5 1.8-2.3 2.6-0.5 2.3 2.9-0.5l1.7-1.3 1.7 1.5c1.7 1.6 3.2 2.4 3.6 1.9 0.4-0.3-1.7-3.3-2.3-3.3-0.9 0 0.3-0.7 1.5-0.9 0.7 0 1.7 0.3 2.7 1 2.2 1.5 9.2 2 9.2 0.7 0-0.5-2.9-1.7-5.2-2.2l-2.3-0.4 3.2-1.2 3.2-1.3 1.8 0.8c2.5 1.2 8.7 0.2 8.7-1.3 0-0.5-4.4-1.2-6.4-0.9l-2 0.2 1.1-0.6c0.7-0.4 2.1-1.3 3.1-2.2 1.8-1.4 2-1.4 4.7-1.4 3.7 0 8.2-2 7.4-3.3-0.3-0.5-4 0-6.1 0.7-0.8 0.3-1.6 0.6-1.7 0.6-1.3 0 4.6-5 6.2-5.2 3-0.5 6-2.5 7.3-5 0.9-1.7-3.6-0.4-6.1 1.7-1.5 1.3-1.6 1.1-0.3-0.7 0.5-0.8 1.2-2.2 1.6-3.1 0.6-1.4 1-1.8 1.9-2 2.2-0.4 7.3-6.5 6.3-7.5-0.4-0.4-3.3 1.3-4.9 2.9-0.9 1-1.6 1.5-1.4 1.1 0.1-0.5 0.5-1.9 0.8-3.2 0.5-2.1 0.9-2.7 2.3-4.1 1.9-1.7 3.4-4.8 3.4-7.1v-1.2l-1.8 1.7c-1 0.9-2 2.4-2.3 3.3l-0.6 1.6v-3.6c0-2.8 0.1-3.6 0.6-4.1 1.8-1.5 2.9-7.9 1.8-10-0.6-0.9-2.5 3.5-2.8 6.2l-0.1 2.1-0.9-3.6-0.9-3.7 0.8-1.5c1.2-2.3 0.2-9.7-1.3-9.7-0.7 0-1.3 5.3-0.8 7.2 0.6 2.2 0.3 2.8-0.3 0.9-0.3-0.8-1.1-2.4-1.9-3.7-1.2-2-1.4-2.7-1.5-4.9q-0.1-4-2.5-7l-0.8-0.9 0.1 2.9c0.1 1.6 0.3 3.3 0.5 3.7 0.2 0.4-0.9-0.4-2.4-1.8-1.5-1.3-2.7-2.8-2.8-3.1-0.8-3.8-5.9-9.5-5.9-6.5 0 1.3 1.9 5.1 3 6l1.1 0.9-1.6-0.5c-2-0.7-8-1.3-8-0.8 0 1.1 5.1 3 8.5 3.2l3.5 0.2 2.3 2.3c2.4 2.4 2.5 2.6 0.7 1.7-1.6-0.9-5.1-1.5-6.3-1.2l-1.1 0.3 1 0.7c1.8 1.4 4.4 2.4 7.1 2.7l2.8 0.2 1.9 3.7 2 3.6-1.9-1.5c-1.9-1.4-6.5-3.7-6.8-3.4-1 1 4.9 5.8 7.6 6.2 1.9 0.3 2.6 1.6 3.2 6.1l0.2 1.7-1.3-1.7c-1.5-1.9-4.5-4.2-4.9-3.8-1.1 1.1 2.7 6.3 5 6.7 1.6 0.4 1.9 1.2 1.9 5.3v3.7l-1.1-2.4c-1.1-2.3-4.1-6-4.5-5.6-1.1 1 1.9 7.8 3.9 9.1 1.4 0.9 1.4 1.3 0.1 6.1l-0.6 2.5-0.5-2.4c-0.4-2.4-2.2-6.7-2.8-6.7-1.6 0-0.5 7.2 1.6 10.3l0.7 1.2-1.5 2.9c-0.9 1.6-1.7 3.1-1.9 3.2-0.1 0.2-0.3-1.3-0.3-3.3 0-2.4-0.2-4.1-0.6-5l-0.6-1.3-0.5 1.1c-0.9 2.1-1 6.7-0.2 8.6l0.7 1.8-1.2 1.4c-0.7 0.9-1.8 2.1-2.6 2.9l-1.4 1.3 0.6-1.4c0.6-1.5 0.7-5.5 0.2-7.3l-0.2-1-0.7 1c-0.9 1.4-1.9 6-1.8 8.3 0.1 2.2-0.5 2.9-4.5 5.1-1.9 1.1-2 1.1-1.1 0.2 1.6-1.8 3.4-8.2 2.3-8.2-1.2 0-3.6 4.2-4.3 7.5l-0.5 2.4-2.2 0.9c-4 1.6-4.1 1.6-2.6 0.1 1.2-1.2 2.6-3.9 3.3-6.1 0.3-0.9 0.2-0.9-0.9-0.3-2.9 1.5-5.6 4.9-5.6 7.1 0 0.5-0.3 1-0.6 1.1-1.8 0.5-5.9 1-7.3 0.8-4.2-0.6-4.1-0.5-4.4-1.9-0.6-2.9-2.8-5.6-5.7-7.1-1.2-0.6-1.2-0.6-0.9 0.3 0.7 2.2 2.1 4.9 3.3 6.1l1.3 1.3-1.1-0.3c-3.7-0.9-5.1-1.9-5.3-3.8-0.4-2.8-3.5-8.1-4.8-8.1-0.9 0 0.9 6.7 2.2 8.1 1.3 1.4 0.4 1.1-2.5-0.9-3.5-2.3-3.4-2.1-3.5-6.2-0.2-4-1.7-8.2-2.3-6.6-0.5 1.1-0.5 6.7 0 7.6 1 1.8-1.2-0.3-3.4-3.2l-0.8-1.2 0.8-1.8c0.8-1.9 0.9-7.3 0-8.9-0.8-1.4-1.8 1.8-1.9 5.8 0 3.9 0.1 3.9-2.1-0.3-1.5-3.1-1.5-3.1-0.8-3.9 1.9-2.1 3.3-9.3 1.9-10.2-0.5-0.3-2.6 4.2-2.9 6.6-0.3 2.4-0.7 1.9-1.6-2.3l-0.7-3.3 1.5-1.2c2.2-1.8 4.6-8.2 3.1-8.2-0.8 0-3.2 3.3-4 5.3l-0.8 2v-4.2c0-3.6 0.1-4.2 0.6-4.2 2.5 0 6.4-4.1 6.4-6.9 0-1.4-4.6 2.1-5.9 4.5l-0.7 1.4 0.2-1.8c0.1-0.9 0.6-2.8 1-4.1l0.7-2.3 2-0.5c2.6-0.6 4.5-1.8 5.9-3.8 2.3-3.1-2.6-1.6-5.9 1.9l-1.7 1.6 1.5-2.9c2.3-4.7 2.7-5.1 4.6-5.1 3.3 0 8.1-2.1 8.1-3.6 0-1-6 0.3-7.5 1.6-1.8 1.5-0.8 0 1.4-2.2l2.4-2.5 3.1-0.1c2.7-0.1 3.6-0.3 5.9-1.4l2.7-1.3-2.1-0.4c-1.5-0.3-2.6-0.2-4.3 0.2l-2.2 0.5 1.7-3.4c2-4 1.9-4.1-0.3-3zm25.7-1.4c1.5 1.8 9.4 5.4 10.1 4.7 0.5-0.4-2.8-3.3-4.6-4-2.6-1.2-6.2-1.6-5.5-0.7zm-17.3 0.1c-1.7 0.6-6 4.2-5.6 4.7 0.6 0.5 8.1-3.1 9.4-4.5 1-1.1-0.8-1.2-3.8-0.2zm-106.2 5.3l-8.1-0.2v66.1h4.8c22.4 0 32.6-8.2 35.1-28.1 2.2-18.4-5.9-32.9-20.6-36.8-2.5-0.6-4.7-0.8-11.2-1zm110.6 31.6l1.6 1.4-0.9 2.9c-5.1 16.1-6.1 19.4-6.1 19.6 0 0.2 5.3 0.2 11.9 0.2h11.8l-1.3-4.5c-3.8-12.6-5.5-18.5-5.2-18.5 0.6 0 3.2-2.9 3.9-4.4 2.2-4.3 0.1-10.1-4.5-12.5-10.2-5.2-19.6 8.2-11.2 15.8z"/><path fill-rule="evenodd" class="d" d="m127.8 129.2c0 0.7 0.1 1 0.2 0.7 0.1-0.4 0.1-1 0-1.4-0.1-0.4-0.2-0.1-0.2 0.7zm78.2 2.3c0 1.4 0.1 2 0.1 1.3 0.1-0.7 0.1-1.8 0-2.5 0-0.7-0.1-0.2-0.1 1.2zm-87.4-0.5c-0.1 0.2 1.4 0.3 3.2 0.2 6-0.2 6.6-0.3 1.8-0.4-2.7 0-4.9 0.1-5 0.2zm42.9 8.1c0 3.1 0 4.2 0.1 2.7 0.1-1.6 0.1-4.1 0-5.5-0.1-1.4-0.1-0.2-0.1 2.8zm78.5 3.4c0 4.8 0.1 6.8 0.1 4.4 0.1-2.5 0.1-6.4 0-8.8 0-2.4-0.1-0.5-0.1 4.4zm43 0c0 4.8 0 6.8 0.1 4.4 0.1-2.5 0.1-6.4 0-8.8-0.1-2.4-0.1-0.5-0.1 4.4zm-203.9-0.6c0 2.8 0 3.9 0.1 2.4 0.1-1.5 0.1-3.7 0-5.1-0.1-1.3-0.1-0.1-0.1 2.7zm123 0c0 2.8 0.1 3.9 0.1 2.4 0.1-1.5 0.1-3.7 0-5.1 0-1.3-0.1-0.1-0.1 2.7zm3.9-2c0 1.7 0.1 2.4 0.1 1.5 0.1-0.9 0.1-2.3 0-3.1 0-0.8-0.1-0.1-0.1 1.6zm48.8 4.7c0 3.5 0.1 4.8 0.2 3 0.1-1.8 0.1-4.6 0-6.2-0.1-1.7-0.2-0.2-0.2 3.2zm43 0.6c0 3.3 0.1 4.7 0.1 3 0.1-1.6 0.1-4.4 0-6 0-1.7-0.1-0.3-0.1 3zm-3.9 0.4c0 3.1 0.1 4.4 0.1 2.8 0.1-1.5 0.1-4.1 0-5.6 0-1.6-0.1-0.3-0.1 2.8zm-96.1 0.2c0 3 0.1 4.2 0.1 2.6 0.1-1.6 0.1-4 0-5.5 0-1.4-0.1-0.1-0.1 2.9zm89.1 0.2c0 2.9 0 4.1 0.1 2.6 0.1-1.4 0.1-3.8 0-5.3-0.1-1.4-0.1-0.2-0.1 2.7zm-118.8-3.3c0 0.8 0.1 1.1 0.1 0.6 0.1-0.4 0.1-1.1 0-1.5-0.1-0.4-0.1 0-0.1 0.9zm-49.4 5c0.2 0.1 2.4 0.2 5 0.2l4.6-0.2-4.9-0.2c-2.8-0.1-4.9 0-4.7 0.2zm58.4 0.5c0.3 0.1 0.9 0.1 1.3 0 0.4-0.1 0.1-0.2-0.7-0.2-0.7 0-1 0.1-0.6 0.2zm-48.9 1.5c0 0.9 0.1 1.2 0.2 0.7 0.1-0.5 0.1-1.2 0-1.6-0.1-0.4-0.2 0-0.2 0.9zm-68.3 1.6c0.6 0.1 1.5 0.1 2.1 0 0.6 0 0.1-0.1-1.1-0.1-1.1 0-1.6 0.1-1 0.1zm77.5 0c0.5 0.1 1.2 0.1 1.6 0 0.3-0.1-0.1-0.1-0.9-0.1-0.9 0-1.2 0-0.7 0.1zm169.9 0c0.5 0.1 1.2 0.1 1.6 0 0.4-0.1 0-0.1-0.9-0.1-0.9 0-1.2 0-0.7 0.1zm-16.4 5.5c0.5 0.1 1.2 0.1 1.6 0 0.4-0.1 0-0.2-0.9-0.2-0.9 0-1.2 0.1-0.7 0.2zm-1 5.8c0 0.8 0.1 1.2 0.2 0.7 0.1-0.5 0.1-1.2 0-1.6-0.1-0.4-0.2 0-0.2 0.9zm-77.2 9.6c0 4.4 0 6.2 0.1 4 0.1-2.2 0.1-5.8 0-8-0.1-2.3-0.1-0.4-0.1 4zm16.9-5.2c0.5 0.1 1.2 0.1 1.6 0 0.3-0.1-0.1-0.2-0.9-0.2-0.9 0-1.2 0.1-0.7 0.2zm7 0c0.7 0.1 1.8 0.1 2.4 0 0.6-0.1 0-0.2-1.3-0.2-1.3 0-1.8 0.1-1.1 0.2zm37.2 0c0.6 0.1 1.1 0.4 1.3 0.6q0.4 0.5 0.2-0.1c-0.1-0.4-0.7-0.6-1.3-0.7-1 0-1 0-0.2 0.2zm5.8 0c0.5 0.1 1.3 0.1 1.7 0 0.5-0.1 0.1-0.2-0.8-0.2-1 0-1.4 0.1-0.9 0.2zm4.9 0c0.3 0.1 1 0.1 1.3 0 0.4-0.1 0.1-0.2-0.6-0.2-0.8 0-1.1 0.1-0.7 0.2zm5.6-0.1c-0.1 0.2-0.3 3.3-0.3 6.9v6.6l-1.9-0.1c-1.1-0.1-1.8 0-1.6 0.2 0.2 0.2 1.1 0.2 2 0.2l1.7-0.1 0.1-6.8 0.2-6.7 1.6-0.1 1.7-0.2h-1.6c-0.9-0.1-1.8 0-1.9 0.1zm-19.3 2.3c0 1.1 0.1 1.5 0.2 0.9 0.1-0.6 0.1-1.5 0-2-0.1-0.4-0.2 0.1-0.2 1.1zm-43.8 5.4v5.8h-1.8-1.7l-0.2-5.3-0.1-5.3v5.4 5.4l1.9 0.1c2.3 0.1 2.3 0.3 2.1-6.4l-0.1-5.5zm-17.5-3c0 0.9 0 1.2 0.1 0.7 0.1-0.5 0.1-1.2 0-1.6-0.1-0.3-0.1 0-0.1 0.9zm6.9 3.8c-0.1 2.9-0.1 5.2 0.1 5 0.2-0.1 0.3-2.5 0.2-5.3l-0.1-5.1zm-70.2-3.2c0 1 0.1 1.4 0.1 0.9 0.1-0.5 0.1-1.3 0-1.7 0-0.5-0.1-0.1-0.1 0.8zm-52.1 8.4c0.2 0.1 1.2 0.2 2.4 0.2l2.1-0.2-2.4-0.2c-1.3-0.1-2.3 0-2.1 0.2zm-41.3 0.1c1 0.1 2.6 0.1 3.5 0 0.9-0.1 0.1-0.1-1.8-0.1-2 0-2.7 0.1-1.7 0.1zm71.1 0c0.6 0.1 1.6 0.1 2.2 0 0.5-0.1 0.1-0.1-1.1-0.1-1.2 0-1.7 0-1.1 0.1zm44.9 0c0.6 0.1 1.6 0.1 2.2 0 0.6-0.1 0.1-0.1-1.1-0.1-1.2 0-1.7 0-1.1 0.1zm10.2 0c0.6 0.1 1.5 0.1 2.1 0 0.6-0.1 0.1-0.1-1-0.1-1.2 0-1.7 0-1.1 0.1zm10.1 0c0.6 0.1 1.6 0.1 2.2 0 0.6-0.1 0.1-0.1-1.1-0.1-1.2 0-1.7 0-1.1 0.1zm24.5 0c0.4 0.1 1.1 0.1 1.5 0 0.4-0.1 0-0.2-0.9-0.2-0.8 0-1.1 0.1-0.6 0.2zm63.2 0c0.5 0.1 1.2 0.1 1.6 0 0.4-0.1 0-0.2-0.9-0.2-0.8 0-1.1 0.1-0.7 0.2zm20.2 0c0.5 0.1 1.5 0.1 2.1 0 0.6-0.1 0.1-0.1-1.1-0.1-1.2 0-1.6 0-1 0.1zm-146.9 6.7c0.6 0.1 1.5 0.1 2.1 0 0.6-0.1 0.1-0.2-1-0.2-1.2 0-1.7 0.1-1.1 0.2z"/><path fill-rule="evenodd" class="e" d="m307.3 30.5c-1.5 0.6-2.8 1-2.9 0.9-0.4-0.5 3.9-4.1 5.6-4.7 6.9-2.2 4.4 1.2-2.7 3.8zm-5.4 0.5l-1.7 3.5 2.2-0.6c1.7-0.4 2.8-0.4 4.3-0.1l2.1 0.3-2.7 1.3c-2.3 1.1-3.2 1.4-5.9 1.5l-3.1 0.1-2.4 2.4c-2.2 2.2-3.2 3.7-1.4 2.2 1.5-1.3 7.5-2.5 7.5-1.6 0 1.5-4.8 3.6-8.1 3.6-1.9 0-2.3 0.5-4.6 5.1l-1.5 2.9 1.7-1.6c3.3-3.4 8.2-4.9 5.9-1.8-1.4 1.9-3.3 3.1-5.9 3.8l-2 0.4-0.7 2.4c-0.4 1.3-0.9 3.1-1 4.1l-0.2 1.7 0.7-1.3c1.3-2.4 5.9-5.9 5.9-4.5 0 2.7-3.9 6.8-6.4 6.8-0.5 0-0.6 0.7-0.6 4.2v4.2l0.8-2c0.8-2 3.2-5.2 4-5.2 1.5 0-0.9 6.3-3.1 8.1l-1.5 1.2 0.7 3.3c0.9 4.3 1.3 4.8 1.6 2.3 0.3-2.3 2.4-6.9 2.9-6.5 1.4 0.8 0 8.1-1.9 10.1-0.7 0.8-0.7 0.9 0.8 3.9 2.2 4.2 2.1 4.2 2.1 0.3 0.1-4 1.1-7.1 1.9-5.7 0.9 1.5 0.8 6.9 0 8.9l-0.8 1.8 0.8 1.1c2.2 2.9 4.4 5 3.4 3.2-0.5-0.9-0.5-6.5 0-7.6 0.6-1.6 2.1 2.7 2.3 6.6 0.1 4.1 0 3.9 3.5 6.3 2.9 1.9 3.8 2.2 2.5 0.9-1.3-1.4-3.1-8.1-2.2-8.1 1.3 0 4.4 5.2 4.8 8 0.2 1.9 1.6 3 5.3 3.8l1.1 0.3-1.3-1.3c-1.2-1.2-2.6-3.9-3.3-6.1-0.3-0.9-0.3-0.9 0.9-0.3 2.9 1.5 5.1 4.2 5.7 7.2 0.3 1.3 0.2 1.3 4.4 1.8 1.4 0.2 5.5-0.3 7.3-0.8 0.3-0.1 0.6-0.6 0.6-1 0-2.2 2.7-5.7 5.6-7.2 1.1-0.6 1.2-0.6 0.9 0.3-0.7 2.3-2.1 4.9-3.3 6.2-1.5 1.4-1.4 1.4 2.6-0.2l2.2-0.9 0.5-2.3c0.7-3.3 3.1-7.5 4.3-7.5 1.1 0-0.7 6.3-2.3 8.1-0.9 1-0.8 1 1.1-0.1 4-2.3 4.6-3 4.5-5.2-0.1-2.3 0.9-6.9 1.8-8.3l0.7-1 0.2 1c0.5 1.8 0.4 5.8-0.2 7.3l-0.6 1.5 1.4-1.4c0.8-0.7 1.9-2 2.6-2.8l1.2-1.5-0.7-1.7c-0.8-2-0.7-6.6 0.2-8.6l0.5-1.2 0.6 1.4c0.4 0.9 0.6 2.6 0.6 4.9 0 2 0.2 3.5 0.3 3.3 0.2-0.1 1-1.6 1.9-3.2l1.5-2.9-0.7-1.2c-2.1-3-3.2-10.3-1.6-10.3 0.6 0 2.4 4.4 2.8 6.7l0.5 2.5 0.6-2.6c1.3-4.8 1.3-5.2-0.1-6-2-1.4-5-8.2-3.9-9.2 0.4-0.4 3.4 3.3 4.5 5.7l1.1 2.3v-3.6c0-4.2-0.3-5-1.9-5.3-2.3-0.5-6.1-5.7-5-6.8 0.4-0.4 3.4 2 4.9 3.8l1.3 1.7-0.2-1.7c-0.6-4.5-1.3-5.8-3.2-6-2.7-0.5-8.6-5.3-7.6-6.3 0.3-0.3 4.9 2 6.8 3.5l1.9 1.4-2-3.6-1.9-3.7-2.8-0.2c-2.7-0.3-5.3-1.2-7.1-2.6l-1-0.8 1.1-0.3c1.2-0.3 4.7 0.4 6.3 1.2 1.8 0.9 1.7 0.7-0.7-1.7l-2.3-2.3-3.5-0.2c-3.4-0.2-8.5-2-8.5-3.1 0-0.5 6 0 8 0.7l1.6 0.5-1.1-0.8c-1.2-1-3-4.7-3-6.1 0-2.9 5.1 2.8 5.9 6.6 0.1 0.3 1.3 1.7 2.8 3.1 1.5 1.4 2.6 2.2 2.4 1.7-0.2-0.4-0.4-2.1-0.5-3.7l-0.1-2.9 0.8 1q2.4 2.9 2.5 6.9c0.1 2.3 0.3 3 1.5 4.9 0.8 1.3 1.6 2.9 1.9 3.7 0.6 1.9 0.9 1.3 0.3-0.9-0.5-1.9 0.1-7.2 0.8-7.2 1.5 0 2.5 7.4 1.3 9.7l-0.8 1.6 0.9 3.6 0.9 3.7 0.1-2.2c0.3-2.6 2.2-7.1 2.8-6.1 1.1 2.1 0 8.5-1.8 10-0.5 0.4-0.6 1.2-0.6 4.1v3.5l0.6-1.6c0.3-0.8 1.3-2.3 2.3-3.3l1.8-1.7v1.3c0 2.2-1.5 5.3-3.4 7-1.4 1.4-1.8 2-2.3 4.1-0.3 1.3-0.7 2.8-0.8 3.2-0.2 0.4 0.5 0 1.4-1 1.6-1.7 4.5-3.4 4.9-3 1 1.1-4.1 7.1-6.3 7.6-0.9 0.1-1.3 0.5-1.9 1.9-0.4 1-1.1 2.4-1.6 3.1-1.3 1.9-1.2 2 0.3 0.8 2.5-2.2 7-3.5 6.1-1.8-1.3 2.5-4.3 4.6-7.3 5-1.6 0.3-7.5 5.2-6.2 5.2 0.1 0 0.9-0.3 1.7-0.6 2.1-0.7 5.8-1.1 6.1-0.7 0.8 1.3-3.7 3.4-7.4 3.3-2.7 0-2.9 0.1-4.7 1.5-1 0.8-2.4 1.7-3.1 2.1l-1.1 0.7 2-0.3c2-0.2 6.4 0.4 6.4 1 0 1.5-6.2 2.4-8.7 1.3l-1.8-0.8-3.2 1.2-3.2 1.2 2.3 0.5c2.3 0.4 5.2 1.6 5.2 2.1 0 1.3-7 0.8-9.2-0.7-1-0.7-2-1-2.7-0.9-1.2 0.1-2.4 0.8-1.5 0.8 0.6 0 2.7 3 2.3 3.4-0.4 0.4-1.9-0.4-3.6-1.9l-1.7-1.6-1.7 1.4c-3.4 2.7-5.2 3-2.9 0.4 0.8-0.9 1.5-1.7 1.5-1.8 0-0.6-3.3-0.7-3.9-0.1-1.8 1.6-6.2 2.2-9.6 1.4l-1.2-0.3 2.2-1c1.2-0.6 3.1-1.2 4.3-1.4l2.1-0.3-1.4-0.3c-0.7-0.2-2.2-0.7-3.2-1.1-1.9-0.8-2-0.8-3.9-0.1-2.8 1-9.9-0.5-8.6-1.8 0.5-0.5 5.3-0.7 6.9-0.3 1 0.3 0.9 0.1-0.7-0.9-1.1-0.7-2.7-1.8-3.5-2.5-1.5-1.2-1.7-1.2-3.5-1-3.4 0.5-9.3-2-7.9-3.4 0.4-0.4 5 0.5 6.8 1.4q2.9 1.4 0.5-0.9c-0.7-0.6-1.7-1.8-2.2-2.5-0.9-1.3-1.3-1.5-3-1.7-3.2-0.4-9.3-5.2-7.2-5.7 1.1-0.2 4.6 1.2 6 2.4 0.8 0.7 1.3 1.1 1.2 0.9-1.8-4.1-3.3-6.4-4.4-6.6-2.3-0.5-7.1-6.4-6-7.5 0.5-0.5 3.9 1.9 5.3 3.7 1 1.3 1.3 1.5 1.1 0.8-0.2-0.5-0.6-2.1-0.9-3.5-0.5-2.1-0.9-2.8-2.1-3.9-2.1-1.8-4.6-7.6-3.6-8.6 0.3-0.4 2.9 2.6 3.8 4.5l1 1.9-0.2-3.4c-0.1-2.8-0.3-3.6-1-4.3-1.7-1.8-2.5-6.4-1.7-9.6l0.3-0.9 0.6 1.1c1 1.6 2 4.8 2 6.4 0.1 1.7 0.4 0.9 1.3-3 0.7-2.7 0.7-2.8-0.1-4.2-1.1-1.7-1-6 0.2-8.6 0.9-2.1 1.3-1.1 1.6 3.8l0.3 3.4 1.5-2.8c0.8-1.6 1.7-3.1 1.9-3.3 0.2-0.2 0.1-1-0.1-1.9-0.6-2.2 0.9-7.3 2.4-8.2 0.6-0.4 0.5 4.4-0.2 6.1-0.3 0.8-0.3 1.5-0.1 1.5 0.1 0 0.3-0.1 0.3-0.3 0-0.2 1.2-1.6 2.6-3 2.1-2.2 2.8-3.2 3.2-4.7 0.6-2.5 1.9-4.2 4-5.2 2.2-1.1 2.3-1 0.3 2.9zm30.9-3.7c1.8 0.7 5.1 3.6 4.6 4-0.7 0.8-8.6-2.9-10.1-4.7-0.7-0.9 2.9-0.5 5.5 0.7z"/></svg>