<svg id="svg" version="1.1" xmlns="http://www.w3.org/2000/svg" xmlns:xlink="http://www.w3.org/1999/xlink" width="400" height="400" viewBox="0, 0, 400,400"><g id="svgg"><path id="path0" d="M143.033 218.946 C 143.105 221.417,143.032 223.438,142.871 223.438 C 142.710 223.438,142.578 223.290,142.578 223.110 C 142.578 222.099,138.545 221.278,136.408 221.853 C 130.813 223.360,128.579 231.738,132.503 236.498 C 134.652 239.106,138.980 239.944,141.709 238.280 C 143.290 237.316,143.359 237.316,143.359 238.281 C 143.359 238.947,143.620 239.063,145.117 239.063 L 146.875 239.063 146.875 226.758 L 146.875 214.453 144.888 214.453 L 142.902 214.453 143.033 218.946 M312.965 218.946 C 313.031 221.417,313.026 223.439,312.952 223.438 C 312.879 223.438,312.390 223.101,311.867 222.689 C 305.923 218.014,298.082 226.855,301.334 234.565 C 303.051 238.637,308.068 240.452,311.621 238.286 C 312.887 237.514,312.891 237.514,312.891 238.287 C 312.891 238.957,313.156 239.063,314.844 239.063 L 316.797 239.063 316.797 226.758 L 316.797 214.453 314.820 214.453 L 312.843 214.453 312.965 218.946 M71.200 215.317 C 68.807 216.472,70.276 220.017,72.877 219.365 C 74.855 218.868,75.093 216.149,73.233 215.301 C 72.681 215.050,72.193 214.856,72.150 214.870 C 72.106 214.885,71.679 215.086,71.200 215.317 M213.849 215.803 C 211.721 217.931,214.226 220.663,216.710 218.923 C 217.794 218.164,217.833 216.662,216.797 215.625 C 215.766 214.594,215.013 214.639,213.849 215.803 M57.110 215.907 C 47.282 218.802,46.637 235.103,56.215 238.527 C 58.797 239.450,66.282 239.039,66.963 237.937 C 67.430 237.183,66.362 234.699,65.696 234.987 C 58.193 238.241,51.702 232.221,54.040 224.179 C 55.331 219.737,59.898 217.649,64.633 219.335 C 65.485 219.639,66.213 219.851,66.253 219.807 C 66.480 219.554,67.138 216.618,67.000 216.479 C 65.906 215.385,60.033 215.046,57.110 215.907 M114.453 227.344 L 114.453 239.063 121.248 239.063 L 128.043 239.063 128.191 237.511 L 128.339 235.960 123.511 235.851 L 118.683 235.742 118.619 232.324 L 118.555 228.906 122.949 228.906 L 127.344 228.906 127.344 227.148 L 127.344 225.391 123.077 225.391 L 118.809 225.391 118.682 222.231 C 118.527 218.373,118.015 218.750,123.405 218.750 L 127.930 218.750 127.930 217.188 L 127.930 215.625 121.191 215.625 L 114.453 215.625 114.453 227.344 M80.762 217.657 C 79.321 218.040,79.297 218.078,79.297 219.961 L 79.297 221.875 77.930 221.875 C 76.595 221.875,76.563 221.912,76.563 223.438 C 76.563 224.957,76.600 225.000,77.902 225.000 L 79.242 225.000 79.367 231.045 C 79.525 238.671,80.386 239.790,85.560 239.100 C 87.248 238.875,87.309 238.819,87.426 237.394 L 87.548 235.921 86.029 236.164 C 83.476 236.572,83.203 235.982,83.203 230.050 L 83.203 225.000 85.547 225.000 L 87.891 225.000 87.891 223.438 L 87.891 221.875 85.449 221.876 L 83.008 221.876 83.140 219.532 C 83.285 216.960,83.311 216.980,80.762 217.657 M203.809 217.657 C 202.368 218.040,202.344 218.078,202.344 219.961 L 202.344 221.875 200.977 221.875 C 199.642 221.875,199.609 221.912,199.609 223.438 C 199.609 224.963,199.642 225.000,200.977 225.000 L 202.344 225.000 202.344 230.443 C 202.344 238.493,204.237 240.681,209.668 238.906 C 211.553 238.290,210.868 236.051,208.809 236.095 C 206.372 236.148,206.261 235.915,205.996 230.148 L 205.758 225.000 208.348 225.000 L 210.938 225.000 210.938 223.438 L 210.938 221.875 208.398 221.875 L 205.859 221.875 205.859 219.531 C 205.859 218.242,205.728 217.206,205.566 217.228 C 205.405 217.250,204.614 217.443,203.809 217.657 M174.805 221.850 C 166.056 223.979,166.040 237.243,174.784 239.058 C 176.765 239.470,180.637 239.051,181.339 238.349 C 182.156 237.532,181.174 235.479,180.121 235.804 C 175.671 237.174,172.266 234.873,172.266 230.495 C 172.266 226.685,174.499 224.740,178.459 225.099 L 180.856 225.316 181.191 224.084 C 181.631 222.464,181.574 222.400,179.274 221.907 C 177.095 221.439,176.521 221.432,174.805 221.850 M188.281 221.734 C 185.665 222.229,184.766 222.714,184.766 223.631 C 184.766 225.579,184.984 225.697,187.418 225.064 C 191.275 224.061,193.240 224.900,193.969 227.864 L 194.241 228.969 192.480 228.705 C 185.677 227.685,180.618 233.135,184.473 237.331 C 186.511 239.550,189.938 239.926,192.871 238.251 C 194.119 237.539,194.141 237.540,194.141 238.294 C 194.141 238.944,194.411 239.063,195.898 239.063 L 197.656 239.063 197.656 232.480 C 197.656 223.225,195.212 220.423,188.281 221.734 M226.758 221.835 C 215.990 224.590,219.536 241.469,230.372 239.040 C 239.739 236.941,239.181 222.830,229.688 221.738 C 228.721 221.626,227.402 221.670,226.758 221.835 M246.680 222.073 C 245.820 222.378,244.810 223.005,244.434 223.466 L 243.750 224.305 243.750 223.090 C 243.750 221.910,243.699 221.875,241.992 221.875 L 240.234 221.875 240.234 230.469 L 240.234 239.063 242.188 239.063 L 244.141 239.063 244.141 233.373 C 244.141 226.167,244.647 225.038,247.889 225.012 C 250.697 224.991,250.955 225.619,251.109 232.853 L 251.241 239.063 253.062 239.063 L 254.883 239.064 254.688 231.934 C 254.466 223.860,254.252 223.192,251.531 222.103 C 249.658 221.354,248.723 221.348,246.680 222.073 M269.922 221.717 C 266.388 222.324,265.970 222.600,266.249 224.141 C 266.580 225.975,266.403 225.886,268.348 225.199 C 271.943 223.931,275.391 225.205,275.391 227.802 C 275.391 228.669,275.260 228.711,272.559 228.722 C 266.444 228.744,263.195 232.398,265.436 236.732 C 266.705 239.185,271.810 240.124,274.214 238.346 C 275.624 237.304,275.761 237.297,275.504 238.281 C 275.319 238.989,275.492 239.063,277.331 239.063 L 279.363 239.063 279.232 232.520 C 279.044 223.092,276.835 220.529,269.922 221.717 M289.648 222.055 C 288.789 222.370,287.778 223.005,287.402 223.466 L 286.719 224.305 286.719 223.090 C 286.719 221.910,286.668 221.875,284.961 221.875 L 283.203 221.875 283.203 230.469 L 283.203 239.063 284.961 239.063 L 286.719 239.063 286.719 234.353 C 286.719 227.015,287.543 225.000,290.542 225.000 C 293.587 225.000,294.135 226.354,294.138 233.887 L 294.141 239.063 295.898 239.063 L 297.656 239.063 297.655 232.324 C 297.653 222.827,295.408 219.948,289.648 222.055 M70.313 230.469 L 70.313 239.063 72.266 239.063 L 74.219 239.063 74.219 230.469 L 74.219 221.875 72.266 221.875 L 70.313 221.875 70.313 230.469 M89.250 222.559 C 92.752 231.384,95.377 239.141,95.158 240.014 C 94.753 241.628,93.492 242.650,92.081 242.507 C 90.871 242.384,90.429 242.945,90.273 244.800 C 90.123 246.591,95.849 245.422,97.331 243.359 C 97.883 242.591,104.452 225.560,105.354 222.559 C 105.531 221.971,105.284 221.875,103.594 221.875 L 101.627 221.875 99.609 227.930 C 98.499 231.260,97.540 233.984,97.476 233.984 C 97.413 233.984,96.417 231.260,95.263 227.930 L 93.164 221.875 91.071 221.875 C 89.236 221.875,89.012 221.959,89.250 222.559 M150.850 228.418 C 151.008 235.449,151.410 237.120,153.220 238.250 C 155.488 239.666,159.482 239.442,161.230 237.799 L 162.109 236.973 162.109 238.018 C 162.109 238.996,162.222 239.063,163.867 239.063 L 165.625 239.063 165.625 230.469 L 165.625 221.875 163.708 221.875 L 161.790 221.875 161.657 227.707 C 161.496 234.728,161.094 235.661,158.143 235.858 C 155.168 236.056,154.908 235.461,154.751 228.085 L 154.619 221.875 152.661 221.875 L 150.702 221.875 150.850 228.418 M213.281 230.469 L 213.281 239.063 215.234 239.063 L 217.188 239.063 217.188 230.469 L 217.188 221.875 215.234 221.875 L 213.281 221.875 213.281 230.469 M141.767 225.621 C 143.574 227.141,143.612 233.010,141.827 234.796 C 137.992 238.631,132.873 232.856,135.177 227.294 C 136.254 224.693,139.642 223.833,141.767 225.621 M231.190 225.595 C 233.788 227.781,233.542 233.780,230.775 235.718 C 228.645 237.210,225.411 235.721,224.623 232.885 C 223.026 227.135,227.335 222.351,231.190 225.595 M311.952 225.817 C 313.545 227.314,313.366 233.515,311.689 234.926 C 307.394 238.540,302.264 231.732,305.451 226.647 C 306.843 224.426,310.037 224.018,311.952 225.817 M193.993 231.820 C 194.396 232.871,193.344 235.144,192.174 235.749 C 188.865 237.460,185.353 234.250,188.139 232.060 C 189.420 231.052,193.632 230.879,193.993 231.820 M275.391 232.647 C 275.391 236.065,269.904 237.786,268.918 234.678 C 268.218 232.475,269.657 231.317,273.145 231.276 L 275.391 231.250 275.391 232.647 M123.047 256.445 L 123.047 268.359 125.000 268.359 L 126.953 268.359 126.953 256.445 L 126.953 244.531 125.000 244.531 L 123.047 244.531 123.047 256.445 M279.014 244.946 C 276.275 245.519,275.008 247.331,275.002 250.684 C 275.000 251.874,274.914 251.953,273.633 251.953 C 272.467 251.953,272.270 252.083,272.293 252.832 C 272.340 254.319,272.802 254.883,273.978 254.883 L 275.104 254.883 275.029 261.621 L 274.954 268.359 276.930 268.359 L 278.906 268.359 278.906 261.494 L 278.906 254.628 280.762 254.745 L 282.617 254.861 282.738 253.407 L 282.860 251.953 280.883 251.953 L 278.906 251.953 278.906 250.419 C 278.906 248.398,279.787 247.507,281.509 247.786 C 282.685 247.977,284.041 246.195,283.355 245.361 C 283.048 244.987,280.145 244.710,279.014 244.946 M288.366 245.532 C 287.089 246.426,286.328 248.160,286.328 250.176 C 286.328 251.947,286.323 251.953,284.961 251.953 C 283.638 251.953,283.594 252.002,283.594 253.437 C 283.594 254.903,283.610 254.919,284.961 254.762 L 286.328 254.602 286.328 261.481 L 286.328 268.359 288.077 268.359 L 289.825 268.359 289.932 261.621 L 290.039 254.883 291.895 254.883 L 293.751 254.883 293.751 253.418 L 293.750 251.953 291.797 251.953 C 289.850 251.953,289.844 251.949,289.844 250.673 C 289.844 248.686,290.840 247.550,292.421 247.735 C 293.728 247.887,294.945 246.297,294.308 245.268 C 293.934 244.662,289.315 244.867,288.366 245.532 M296.484 245.703 C 294.510 247.678,297.114 250.839,299.300 249.121 C 300.462 248.207,300.522 246.971,299.456 245.905 C 298.269 244.718,297.520 244.667,296.484 245.703 M53.418 245.598 L 51.172 245.742 51.172 257.089 L 51.172 268.436 56.348 268.257 C 66.010 267.922,69.447 265.215,69.845 257.626 C 70.316 248.657,65.111 244.846,53.418 245.598 M256.392 245.715 C 246.412 248.794,246.214 265.320,256.123 268.201 C 265.992 271.070,273.699 261.942,269.924 251.854 C 268.078 246.920,261.767 244.057,256.392 245.715 M232.877 247.762 C 231.609 248.168,231.578 248.230,231.705 250.066 L 231.836 251.954 230.371 251.953 C 228.957 251.953,228.906 252.001,228.906 253.320 C 228.906 254.615,228.976 254.688,230.238 254.688 L 231.569 254.688 231.702 260.539 C 231.873 268.004,232.230 268.555,236.891 268.555 C 240.235 268.555,240.177 268.589,239.951 266.790 C 239.785 265.461,239.730 265.420,238.312 265.555 C 235.827 265.792,235.547 265.178,235.547 259.508 L 235.547 254.618 237.891 254.750 L 240.236 254.883 240.235 253.418 L 240.234 251.953 237.891 251.953 L 235.547 251.953 235.547 249.609 C 235.547 247.022,235.435 246.944,232.877 247.762 M62.289 249.843 C 64.551 251.018,65.625 253.262,65.625 256.815 C 65.625 262.250,63.107 264.843,57.827 264.844 L 55.273 264.845 55.387 256.793 L 55.500 248.742 58.121 248.890 C 59.753 248.983,61.326 249.342,62.289 249.843 M263.315 249.719 C 267.460 252.512,267.599 261.279,263.546 264.235 C 257.719 268.484,250.780 260.549,253.681 252.954 C 255.133 249.151,260.032 247.506,263.315 249.719 M77.539 252.149 C 71.421 254.312,70.895 264.701,76.750 267.726 C 80.547 269.688,86.587 268.749,86.430 266.221 C 86.313 264.336,86.289 264.317,84.921 265.030 C 81.579 266.773,76.563 264.676,76.563 261.536 C 76.563 261.422,78.922 261.328,81.805 261.328 L 87.047 261.328 87.290 260.222 C 88.501 254.711,83.052 250.200,77.539 252.149 M109.961 252.145 C 102.049 254.923,104.123 267.753,112.625 268.630 C 116.908 269.072,119.332 268.017,118.932 265.884 L 118.685 264.568 117.252 265.079 C 113.784 266.318,110.819 265.536,109.724 263.094 L 109.020 261.523 114.373 261.328 L 119.727 261.133 119.846 259.694 C 120.322 253.979,115.413 250.231,109.961 252.145 M135.547 252.021 C 128.501 254.024,128.018 265.288,134.856 268.145 C 140.655 270.568,146.094 266.681,146.094 260.115 C 146.094 253.872,141.484 250.334,135.547 252.021 M154.980 252.456 C 153.251 253.345,153.125 253.360,153.125 252.681 C 153.125 252.068,152.817 251.953,151.172 251.953 L 149.219 251.953 149.219 263.477 L 149.219 275.000 151.172 275.000 L 153.125 275.000 153.125 271.136 L 153.125 267.272 154.575 268.011 C 159.957 270.755,165.039 266.940,165.039 260.156 C 165.039 253.394,160.268 249.741,154.980 252.456 M174.739 251.834 C 174.274 251.925,173.439 252.420,172.884 252.934 L 171.875 253.869 171.875 252.911 C 171.875 252.022,171.735 251.953,169.922 251.953 L 167.969 251.953 167.969 260.156 L 167.969 268.359 169.922 268.359 L 171.875 268.359 171.875 263.269 C 171.875 257.157,172.294 255.778,174.357 255.097 C 177.453 254.075,178.125 255.426,178.125 262.670 L 178.125 268.359 180.078 268.359 L 182.031 268.359 182.033 262.988 C 182.035 255.948,182.948 254.264,186.325 255.074 C 187.949 255.463,188.269 256.731,188.275 262.793 L 188.281 268.359 190.274 268.359 L 192.266 268.359 192.118 261.816 C 191.949 254.388,191.564 253.087,189.244 252.118 C 186.797 251.095,182.714 251.975,181.728 253.736 C 181.375 254.367,181.307 254.352,180.875 253.545 C 180.059 252.020,177.477 251.300,174.739 251.834 M199.398 252.273 C 194.056 254.781,193.071 263.074,197.657 266.933 C 200.949 269.703,209.388 269.175,208.759 266.239 C 208.384 264.489,208.314 264.446,206.840 265.063 C 203.763 266.348,200.608 265.590,199.412 263.277 C 198.418 261.355,198.482 261.328,204.102 261.328 L 209.375 261.328 209.375 259.108 C 209.375 253.428,204.317 249.963,199.398 252.273 M219.383 251.967 C 218.764 252.152,217.841 252.695,217.332 253.173 L 216.406 254.042 216.406 252.998 C 216.406 252.012,216.302 251.953,214.551 251.953 L 212.695 251.953 212.695 260.156 L 212.695 268.359 214.514 268.359 L 216.333 268.359 216.467 262.726 C 216.614 256.557,217.015 255.500,219.433 254.893 C 222.523 254.118,223.432 256.044,223.435 263.379 L 223.438 268.359 225.195 268.359 L 226.953 268.359 226.953 262.006 C 226.953 252.803,225.044 250.271,219.383 251.967 M308.549 252.101 C 301.364 254.669,301.098 265.657,308.160 268.149 C 311.160 269.207,316.021 268.661,316.010 267.267 C 315.996 265.465,315.581 264.880,314.584 265.259 C 310.709 266.732,307.031 264.355,307.031 260.378 C 307.031 256.288,310.354 253.727,314.007 255.000 C 315.141 255.395,316.016 254.391,316.016 252.694 C 316.016 251.688,310.854 251.278,308.549 252.101 M322.461 252.145 C 319.553 253.166,317.578 256.406,317.578 260.156 C 317.578 266.717,323.009 270.227,329.965 268.161 L 331.947 267.573 331.560 266.049 L 331.173 264.525 329.857 265.075 C 327.043 266.251,323.304 265.516,322.385 263.608 C 321.231 261.211,320.996 261.328,326.965 261.328 L 332.422 261.328 332.405 259.473 C 332.350 253.553,327.865 250.248,322.461 252.145 M90.676 258.691 C 91.978 262.397,93.264 266.045,93.532 266.797 C 94.002 268.113,94.101 268.168,96.191 268.280 L 98.361 268.396 99.436 265.155 C 100.027 263.373,101.341 259.673,102.356 256.934 L 104.202 251.953 102.198 251.964 L 100.195 251.975 98.215 258.116 L 96.235 264.258 94.179 258.105 L 92.123 251.953 90.215 251.953 L 88.308 251.953 90.676 258.691 M296.094 260.156 L 296.094 268.359 298.047 268.359 L 300.000 268.359 300.000 260.156 L 300.000 251.953 298.047 251.953 L 296.094 251.953 296.094 260.156 M81.594 254.730 C 82.806 255.152,83.984 256.759,83.984 257.988 C 83.984 258.493,83.364 258.594,80.273 258.594 C 78.232 258.594,76.563 258.500,76.563 258.386 C 76.563 256.795,78.034 255.197,80.313 254.312 C 80.334 254.304,80.911 254.492,81.594 254.730 M140.365 255.164 C 142.795 256.411,142.741 263.893,140.293 265.203 C 136.780 267.083,133.619 264.093,134.077 259.325 C 134.460 255.343,137.193 253.535,140.365 255.164 M328.000 255.567 C 328.274 255.841,328.612 256.634,328.751 257.329 L 329.004 258.594 325.271 258.594 L 321.539 258.594 321.871 257.435 C 322.692 254.574,325.999 253.566,328.000 255.567 M114.631 254.930 C 115.333 255.200,116.406 257.048,116.406 257.988 C 116.406 258.493,115.786 258.594,112.695 258.594 C 110.654 258.594,108.984 258.500,108.984 258.386 C 108.984 255.844,112.078 253.951,114.631 254.930 M159.465 255.456 C 163.115 258.326,161.385 265.625,157.055 265.625 C 154.147 265.625,153.125 264.236,153.125 260.287 C 153.125 255.321,156.258 252.933,159.465 255.456 M204.834 255.415 C 205.196 255.815,205.651 256.694,205.844 257.368 L 206.195 258.594 202.469 258.594 L 198.743 258.594 199.010 257.520 C 199.662 254.894,203.204 253.614,204.834 255.415 " stroke="none" fill="#07135e" fill-rule="evenodd"></path><path id="path1" d="M0.000 200.000 L 0.000 400.000 200.000 400.000 L 400.000 400.000 400.000 200.000 L 400.000 0.000 200.000 0.000 L 0.000 0.000 0.000 200.000 M88.086 102.147 C 94.264 103.438,100.390 106.740,104.636 111.067 L 106.733 113.204 103.819 117.637 C 102.217 120.075,100.234 123.213,99.413 124.609 C 97.194 128.384,97.301 128.299,96.131 127.221 C 74.811 107.574,45.063 133.170,53.110 164.237 C 58.244 184.062,80.268 191.489,94.834 178.307 L 97.153 176.208 99.061 179.022 C 100.110 180.570,102.349 183.661,104.035 185.891 L 107.102 189.947 104.625 192.463 C 95.758 201.470,79.408 206.155,67.188 203.190 C 49.203 198.826,37.154 187.561,32.232 170.508 C 20.943 131.396,51.147 94.429,88.086 102.147 M166.016 111.523 L 166.016 121.484 149.023 121.484 L 132.031 121.484 132.031 131.036 L 132.031 140.588 145.801 140.704 C 159.203 140.817,159.614 140.844,161.208 141.696 C 166.534 144.543,167.599 152.535,163.249 157.017 L 161.719 158.595 161.719 163.887 C 161.719 170.646,160.789 172.682,157.662 172.771 C 154.065 172.873,153.125 171.194,153.125 164.668 L 153.125 159.766 151.367 159.766 L 149.609 159.766 149.604 163.965 C 149.596 169.585,148.608 171.274,145.049 171.751 C 141.149 172.274,139.457 169.919,139.455 163.965 L 139.453 159.766 135.742 159.766 L 132.031 159.766 132.031 171.680 L 132.031 183.594 149.414 183.594 L 166.797 183.594 166.797 193.555 L 166.797 203.516 139.063 203.516 L 111.328 203.516 111.328 152.539 L 111.328 101.563 138.672 101.563 L 166.016 101.563 166.016 111.523 M217.568 102.484 C 229.042 104.981,240.157 111.646,246.240 119.677 C 263.862 142.936,259.080 180.471,236.633 195.082 C 225.583 202.275,218.891 203.515,191.113 203.515 L 174.219 203.516 174.219 152.508 L 174.219 101.501 194.434 101.675 C 211.176 101.818,215.150 101.957,217.568 102.484 M329.297 102.131 C 371.512 108.542,387.975 161.460,357.253 191.992 C 323.785 225.254,267.403 199.961,268.871 152.344 C 269.824 121.422,298.641 97.475,329.297 102.131 M195.703 152.877 L 195.703 185.938 200.488 185.931 C 225.324 185.896,237.069 173.951,235.817 150.000 C 234.772 129.996,224.697 120.562,203.809 120.026 L 195.703 119.817 195.703 152.877 M317.730 135.260 C 310.511 138.124,308.787 146.593,314.392 151.656 L 315.950 153.063 315.055 155.926 C 310.007 172.071,308.984 175.379,308.984 175.565 C 308.984 175.684,314.328 175.781,320.859 175.781 L 332.734 175.781 331.355 171.191 C 327.581 158.635,325.923 152.734,326.170 152.734 C 326.767 152.734,329.353 149.860,330.143 148.318 C 333.808 141.169,325.326 132.246,317.730 135.260 M147.070 226.758 L 147.070 239.063 145.020 239.063 C 143.219 239.063,142.969 238.966,142.969 238.270 L 142.969 237.477 141.895 238.266 C 135.391 243.048,127.676 233.608,131.590 225.658 C 133.349 222.085,138.117 220.420,141.504 222.195 L 142.969 222.963 142.969 218.708 L 142.969 214.453 145.020 214.453 L 147.070 214.453 147.070 226.758 M316.992 226.758 L 316.992 239.063 314.941 239.063 C 313.127 239.063,312.891 238.969,312.891 238.253 L 312.891 237.443 311.887 238.233 C 308.293 241.060,302.349 238.567,300.914 233.631 C 298.696 226.002,304.612 219.341,311.068 222.197 L 312.891 223.003 312.891 218.728 L 312.891 214.453 314.941 214.453 L 316.992 214.453 316.992 226.758 M73.741 215.452 C 75.430 216.635,74.430 219.531,72.333 219.531 C 70.113 219.531,69.035 216.681,70.790 215.452 C 71.268 215.117,71.932 214.844,72.266 214.844 C 72.600 214.844,73.264 215.117,73.741 215.452 M216.710 215.452 C 218.398 216.635,217.399 219.531,215.302 219.531 C 213.139 219.531,212.145 217.151,213.672 215.625 C 214.610 214.686,215.541 214.633,216.710 215.452 M66.113 216.035 C 67.342 216.603,67.317 216.510,66.768 218.488 C 66.488 219.497,66.178 219.918,65.818 219.780 C 58.117 216.825,52.232 221.709,53.933 229.641 C 54.963 234.445,60.829 237.239,65.171 234.994 C 66.525 234.293,66.608 234.365,66.972 236.563 L 67.237 238.166 65.357 238.712 C 60.508 240.120,54.661 238.844,52.105 235.820 C 47.943 230.897,48.510 221.640,53.205 217.855 C 56.264 215.390,62.742 214.476,66.113 216.035 M128.125 217.383 L 128.125 219.141 123.438 219.141 L 118.750 219.141 118.750 222.266 L 118.750 225.391 123.047 225.391 L 127.344 225.391 127.344 227.148 L 127.344 228.906 123.047 228.906 L 118.750 228.906 118.750 232.215 L 118.750 235.523 123.535 235.633 L 128.320 235.742 128.440 237.402 L 128.561 239.063 121.507 239.063 L 114.453 239.063 114.453 227.344 L 114.453 215.625 121.289 215.625 L 128.125 215.625 128.125 217.383 M83.203 219.531 L 83.203 221.875 85.547 221.875 L 87.891 221.875 87.891 223.438 L 87.891 225.000 85.547 225.000 L 83.203 225.000 83.203 230.000 C 83.203 235.654,83.326 235.938,85.778 235.938 C 87.363 235.938,87.420 235.981,87.577 237.328 C 87.771 238.987,87.677 239.060,85.014 239.335 C 80.263 239.826,79.227 238.318,78.990 230.566 L 78.819 225.000 77.691 225.000 C 76.758 225.000,76.563 224.836,76.563 224.055 C 76.563 223.536,76.456 222.833,76.325 222.493 C 76.133 221.991,76.390 221.875,77.693 221.875 L 79.297 221.875 79.297 219.933 C 79.297 218.078,79.354 217.975,80.566 217.625 C 83.113 216.889,83.203 216.955,83.203 219.531 M206.250 219.531 L 206.250 221.875 208.594 221.875 L 210.938 221.875 210.938 223.438 L 210.938 225.000 208.594 225.000 L 206.250 225.000 206.250 230.030 C 206.250 235.760,206.416 236.115,208.977 235.871 C 210.378 235.738,210.547 235.814,210.547 236.579 C 210.547 237.050,210.649 237.702,210.774 238.027 C 211.252 239.273,206.668 239.873,204.508 238.848 C 202.569 237.928,202.227 236.783,202.037 230.566 L 201.866 225.000 200.779 225.000 C 199.795 225.000,199.677 224.851,199.542 223.438 L 199.393 221.875 200.869 221.875 L 202.344 221.875 202.344 219.933 C 202.344 218.078,202.400 217.975,203.613 217.625 C 206.160 216.889,206.250 216.955,206.250 219.531 M179.905 221.921 C 180.860 222.162,181.641 222.449,181.641 222.560 C 181.641 223.834,180.640 225.774,180.109 225.530 C 176.640 223.937,172.998 225.773,172.456 229.389 C 171.808 233.712,174.026 236.128,178.387 235.848 L 181.214 235.667 181.456 236.769 C 182.355 240.861,172.188 240.041,169.573 235.810 C 164.893 228.238,171.219 219.734,179.905 221.921 M195.038 222.608 C 197.341 224.031,197.770 225.508,197.971 232.715 L 198.148 239.063 196.144 239.063 C 194.391 239.063,194.141 238.963,194.141 238.270 C 194.141 237.483,194.132 237.483,193.009 238.313 C 189.256 241.088,183.209 238.587,183.205 234.258 C 183.201 230.650,185.790 228.745,190.722 228.724 C 193.622 228.711,193.749 228.673,193.749 227.806 C 193.751 225.188,191.362 224.175,187.512 225.161 C 186.152 225.510,185.001 225.748,184.954 225.690 C 184.908 225.633,184.753 224.942,184.611 224.155 C 184.336 222.633,184.433 222.556,187.695 221.727 C 189.505 221.268,193.680 221.768,195.038 222.608 M231.444 221.922 C 239.147 224.061,238.900 236.866,231.114 239.046 C 225.192 240.704,220.300 236.839,220.321 230.519 C 220.343 224.038,225.291 220.214,231.444 221.922 M251.940 222.169 C 254.484 223.452,254.866 224.713,255.013 232.324 L 255.143 239.063 253.060 239.063 L 250.977 239.064 251.102 234.473 C 251.342 225.652,249.317 222.604,245.432 225.942 L 244.336 226.884 244.211 232.973 L 244.086 239.063 241.965 239.063 L 239.844 239.063 239.844 230.469 L 239.844 221.875 241.797 221.875 C 243.654 221.875,243.750 221.926,243.750 222.920 L 243.750 223.964 244.629 223.138 C 246.473 221.406,249.605 220.991,251.940 222.169 M275.773 222.363 C 278.901 223.962,279.084 224.486,279.224 232.254 L 279.347 239.063 277.369 239.063 C 275.628 239.063,275.391 238.965,275.391 238.253 C 275.391 237.524,275.331 237.503,274.787 238.048 C 272.070 240.765,265.834 239.224,264.857 235.594 C 263.722 231.381,267.475 228.188,273.085 228.594 C 275.244 228.750,275.391 228.707,275.391 227.910 C 275.391 225.375,272.465 224.155,268.882 225.197 C 266.400 225.918,266.446 225.936,266.154 224.136 C 265.748 221.636,272.070 220.471,275.773 222.363 M294.908 222.204 C 297.365 223.521,297.833 225.088,297.989 232.520 L 298.126 239.063 295.938 239.063 L 293.750 239.063 293.750 233.060 C 293.750 227.580,293.680 226.969,292.940 226.029 C 291.787 224.563,289.782 224.611,288.251 226.142 L 287.109 227.284 287.109 233.173 L 287.109 239.063 284.961 239.063 L 282.813 239.063 282.813 230.469 L 282.813 221.875 284.766 221.875 C 286.622 221.875,286.719 221.926,286.719 222.920 L 286.719 223.964 287.598 223.138 C 289.460 221.389,292.633 220.983,294.908 222.204 M74.219 230.469 L 74.219 239.063 72.266 239.063 L 70.313 239.063 70.313 230.469 L 70.313 221.875 72.266 221.875 L 74.219 221.875 74.219 230.469 M95.362 227.929 L 97.461 233.983 99.445 228.027 L 101.429 222.070 103.599 221.955 L 105.769 221.839 102.154 231.545 C 97.054 245.235,96.874 245.508,92.970 245.508 C 90.239 245.508,90.108 245.407,90.454 243.565 C 90.696 242.273,90.821 242.152,91.692 242.371 C 92.936 242.683,94.266 241.818,94.902 240.283 C 95.357 239.185,95.163 238.493,92.227 230.722 C 90.487 226.115,89.063 222.239,89.063 222.110 C 89.063 221.981,90.008 221.875,91.163 221.875 L 93.264 221.875 95.362 227.929 M154.697 226.855 C 154.711 234.373,155.287 235.938,158.039 235.938 C 160.813 235.938,161.118 235.200,161.257 228.160 L 161.382 221.875 163.503 221.875 L 165.625 221.875 165.625 230.469 L 165.625 239.063 163.867 239.063 C 162.237 239.063,162.109 238.989,162.109 238.051 L 162.109 237.040 160.926 238.036 C 158.970 239.682,155.427 239.893,153.287 238.491 C 151.315 237.198,150.989 235.881,150.848 228.613 L 150.717 221.875 152.702 221.875 L 154.688 221.875 154.697 226.855 M217.188 230.469 L 217.188 239.063 215.234 239.063 L 213.281 239.063 213.281 230.469 L 213.281 221.875 215.234 221.875 L 217.188 221.875 217.188 230.469 M137.235 225.224 C 132.870 227.432,134.414 235.938,139.179 235.938 C 144.261 235.938,144.693 225.692,139.648 224.802 C 138.958 224.681,137.967 224.854,137.235 225.224 M226.991 225.103 C 223.559 226.867,223.525 233.969,226.940 235.736 C 230.110 237.375,232.813 234.951,232.813 230.469 C 232.813 226.086,230.044 223.534,226.991 225.103 M307.031 225.294 C 302.765 227.425,304.421 235.938,309.101 235.938 C 313.459 235.938,314.823 226.875,310.723 225.162 C 309.030 224.455,308.686 224.467,307.031 225.294 M188.795 231.643 C 186.720 232.479,186.804 235.153,188.930 235.961 C 191.279 236.855,193.750 235.113,193.750 232.565 L 193.750 231.250 191.699 231.275 C 190.571 231.288,189.264 231.454,188.795 231.643 M270.703 231.527 C 267.878 232.566,268.276 235.573,271.315 236.143 C 273.615 236.575,276.322 233.464,275.211 231.666 C 274.947 231.239,271.753 231.141,270.703 231.527 M126.953 256.641 L 126.953 268.750 125.000 268.750 L 123.047 268.750 123.047 256.641 L 123.047 244.531 125.000 244.531 L 126.953 244.531 126.953 256.641 M283.528 245.116 C 284.240 245.829,282.633 248.070,281.577 247.837 C 279.947 247.480,278.906 248.498,278.906 250.451 L 278.906 251.953 280.859 251.953 L 282.813 251.953 282.813 253.516 L 282.813 255.078 280.859 255.078 L 278.906 255.078 278.906 261.944 L 278.906 268.811 277.051 268.676 L 275.195 268.541 275.088 261.810 L 274.982 255.078 273.624 255.078 C 272.300 255.078,272.266 255.039,272.266 253.516 C 272.266 252.001,272.306 251.953,273.584 251.953 C 274.902 251.953,274.903 251.951,275.083 249.788 C 275.395 246.025,277.549 244.319,281.438 244.755 C 282.509 244.875,283.449 245.037,283.528 245.116 M294.414 245.065 C 295.160 245.811,293.966 248.071,292.944 247.846 C 291.101 247.441,290.234 248.197,290.234 250.209 L 290.234 251.953 292.100 251.953 L 293.966 251.953 293.817 253.516 C 293.668 255.078,293.667 255.078,291.960 255.078 L 290.253 255.078 290.146 261.816 L 290.039 268.555 288.148 268.555 L 286.257 268.555 286.309 261.816 L 286.360 255.078 285.018 255.078 C 283.737 255.078,283.669 255.006,283.527 253.516 L 283.378 251.953 284.853 251.953 L 286.328 251.953 286.328 249.857 C 286.328 246.320,288.642 244.337,292.338 244.707 C 293.388 244.812,294.322 244.973,294.414 245.065 M299.609 245.703 C 301.742 247.836,298.655 250.988,296.417 248.963 C 294.963 247.647,295.971 244.922,297.912 244.922 C 298.416 244.922,299.180 245.273,299.609 245.703 M63.703 246.457 C 67.887 248.022,70.041 251.549,70.036 256.829 C 70.030 265.083,65.146 268.712,54.004 268.742 L 51.172 268.750 51.172 257.251 L 51.172 245.753 52.441 245.568 C 55.299 245.154,61.537 245.646,63.703 246.457 M265.365 246.442 C 271.531 249.464,272.934 260.258,267.851 265.562 C 262.536 271.107,252.227 269.212,249.607 262.208 C 245.527 251.303,255.311 241.513,265.365 246.442 M237.908 251.953 L 240.234 251.953 240.234 253.516 L 240.234 255.078 237.891 255.078 L 235.547 255.078 235.547 259.483 C 235.547 264.917,235.942 265.752,238.422 265.557 C 240.408 265.401,241.250 267.997,239.376 268.498 C 233.498 270.073,231.641 268.056,231.641 260.098 L 231.641 255.078 230.273 255.078 C 228.939 255.078,228.906 255.041,228.906 253.516 C 228.906 251.990,228.939 251.953,230.273 251.953 L 231.641 251.953 231.641 250.012 L 231.641 248.071 233.496 247.528 L 235.352 246.986 235.467 249.469 L 235.583 251.953 237.908 251.953 M55.469 256.824 L 55.469 264.932 58.105 264.771 C 63.092 264.468,65.198 262.509,65.531 257.865 C 65.945 252.074,63.826 249.493,58.233 248.973 L 55.469 248.716 55.469 256.824 M257.207 249.378 C 251.705 251.774,251.765 262.391,257.293 264.702 C 262.052 266.690,266.052 263.491,266.320 257.481 C 266.612 250.964,262.322 247.150,257.207 249.378 M83.332 252.095 C 85.903 253.170,87.691 256.490,87.424 259.694 L 87.305 261.133 81.958 261.241 L 76.611 261.350 76.999 262.463 C 77.953 265.201,81.393 266.392,84.544 265.075 C 86.327 264.330,86.334 264.334,86.600 266.317 L 86.806 267.854 85.027 268.302 C 77.734 270.138,72.688 266.848,72.665 260.241 C 72.642 253.817,77.879 249.817,83.332 252.095 M115.735 252.100 C 118.388 253.235,119.922 255.922,119.922 259.433 L 119.922 261.328 114.648 261.328 C 108.711 261.328,108.319 261.575,110.375 264.019 C 111.863 265.788,114.814 266.043,118.013 264.679 C 119.272 264.143,119.658 267.392,118.406 267.981 C 113.928 270.090,107.609 268.230,105.812 264.274 C 102.539 257.069,108.954 249.199,115.735 252.100 M142.867 252.816 C 147.808 256.086,147.422 265.095,142.224 267.841 C 134.631 271.851,126.923 263.712,130.876 255.859 C 132.968 251.704,138.908 250.196,142.867 252.816 M161.311 252.335 C 166.766 255.118,166.600 265.905,161.066 268.217 C 159.160 269.013,155.906 268.894,154.395 267.973 L 153.125 267.199 153.125 271.295 L 153.125 275.391 151.172 275.391 L 149.219 275.391 149.219 263.672 L 149.219 251.953 151.172 251.953 C 152.911 251.953,153.125 252.045,153.125 252.795 C 153.125 253.576,153.175 253.591,153.817 253.011 C 155.570 251.424,158.932 251.121,161.311 252.335 M180.409 252.872 C 181.438 253.858,181.560 253.888,182.068 253.275 C 183.438 251.623,187.325 251.048,189.503 252.174 C 191.675 253.298,192.169 255.185,192.179 262.402 L 192.188 268.750 190.262 268.750 L 188.336 268.750 188.211 262.735 C 188.069 255.925,187.749 255.078,185.319 255.078 C 182.651 255.078,182.031 256.667,182.031 263.502 L 182.031 268.750 180.078 268.750 L 178.125 268.750 178.119 262.988 C 178.112 255.946,177.877 255.273,175.421 255.273 C 172.541 255.273,172.099 256.268,171.936 263.114 L 171.802 268.750 169.885 268.750 L 167.969 268.750 167.969 260.352 L 167.969 251.953 169.922 251.953 C 171.605 251.953,171.875 252.060,171.875 252.723 C 171.875 253.447,171.961 253.434,173.340 252.492 C 175.375 251.102,178.750 251.283,180.409 252.872 M205.842 252.335 C 207.865 253.367,208.941 254.981,209.458 257.759 C 210.133 261.390,210.226 261.328,204.114 261.328 C 201.207 261.328,198.828 261.422,198.828 261.536 C 198.828 264.677,202.726 266.420,206.652 265.035 C 208.624 264.339,208.577 264.313,208.696 266.199 C 208.977 270.653,197.989 269.370,195.720 264.684 C 191.990 256.978,198.758 248.721,205.842 252.335 M224.493 252.328 C 226.822 253.748,227.134 254.898,227.141 262.109 L 227.148 268.555 225.195 268.555 L 223.242 268.555 223.047 262.461 C 222.826 255.577,222.641 255.078,220.308 255.078 C 217.331 255.078,217.019 255.743,216.797 262.562 L 216.602 268.555 214.648 268.555 L 212.695 268.555 212.590 260.254 L 212.484 251.953 214.445 251.953 C 216.285 251.953,216.406 252.015,216.406 252.945 L 216.406 253.937 217.285 253.101 C 219.098 251.378,222.361 251.028,224.493 252.328 M314.844 251.921 C 315.650 252.152,315.809 252.425,315.758 253.487 C 315.673 255.244,315.299 255.488,313.453 254.992 C 310.333 254.153,307.692 255.937,307.201 259.215 C 306.532 263.674,309.911 266.537,314.342 265.266 C 315.668 264.886,315.578 264.792,316.255 267.242 C 316.651 268.677,310.712 269.318,307.898 268.144 C 297.656 263.873,304.095 248.834,314.844 251.921 M328.922 252.462 C 331.213 253.673,332.422 255.948,332.422 259.046 L 332.422 261.328 326.973 261.328 L 321.525 261.328 321.917 262.452 C 322.991 265.533,326.325 266.387,330.539 264.659 C 331.237 264.373,332.330 267.082,331.731 267.611 C 329.541 269.541,322.477 268.982,319.973 266.681 C 313.101 260.362,320.782 248.158,328.922 252.462 M92.891 254.004 C 93.309 255.132,94.232 257.838,94.942 260.019 L 96.234 263.982 98.196 257.968 L 100.158 251.953 102.210 251.953 L 104.263 251.953 102.881 255.762 C 102.121 257.856,100.787 261.644,99.916 264.178 L 98.333 268.786 96.192 268.670 L 94.051 268.555 91.373 260.990 C 89.901 256.830,88.591 253.095,88.462 252.690 C 88.255 252.035,88.446 251.953,90.180 251.953 L 92.131 251.953 92.891 254.004 M300.000 260.352 L 300.000 268.750 298.047 268.750 L 296.094 268.750 296.094 260.352 L 296.094 251.953 298.047 251.953 L 300.000 251.953 300.000 260.352 M78.422 255.228 C 78.048 255.512,77.475 256.385,77.147 257.169 L 76.552 258.594 80.276 258.594 L 83.999 258.594 83.745 257.520 C 83.160 255.046,80.290 253.810,78.422 255.228 M110.386 255.889 C 108.470 258.166,108.873 258.594,112.933 258.594 L 116.491 258.594 116.224 257.520 C 115.491 254.563,112.261 253.661,110.386 255.889 M135.564 255.782 C 132.550 258.796,134.218 265.625,137.969 265.625 C 140.484 265.625,142.188 263.416,142.188 260.156 C 142.188 255.546,138.341 253.005,135.564 255.782 M154.990 255.296 C 152.618 256.584,152.175 262.803,154.327 264.614 C 156.559 266.492,159.658 265.741,160.783 263.047 C 162.869 258.055,159.129 253.050,154.990 255.296 M200.684 255.109 C 199.989 255.514,198.828 257.437,198.828 258.184 C 198.828 258.440,200.150 258.594,202.344 258.594 C 205.850 258.594,205.859 258.591,205.859 257.599 C 205.859 255.426,202.727 253.919,200.684 255.109 M322.886 255.889 C 320.970 258.166,321.373 258.594,325.433 258.594 L 328.991 258.594 328.724 257.520 C 327.991 254.563,324.761 253.661,322.886 255.889 " stroke="none" fill="#fbfbfb" fill-rule="evenodd"></path><path id="path2" d="M72.656 101.411 C 22.160 107.596,13.842 186.629,62.096 201.746 C 77.694 206.633,94.228 203.024,104.625 192.463 L 107.102 189.947 104.035 185.891 C 102.349 183.661,100.110 180.570,99.061 179.022 L 97.153 176.208 94.834 178.307 C 80.268 191.489,58.244 184.062,53.110 164.237 C 45.063 133.170,74.811 107.574,96.131 127.221 C 97.301 128.299,97.194 128.384,99.413 124.609 C 100.234 123.213,102.217 120.075,103.819 117.637 L 106.733 113.204 104.636 111.067 C 97.460 103.753,84.782 99.925,72.656 101.411 M111.328 152.539 L 111.328 203.516 139.063 203.516 L 166.797 203.516 166.797 193.555 L 166.797 183.594 149.414 183.594 L 132.031 183.594 132.031 171.680 L 132.031 159.766 135.742 159.766 L 139.453 159.766 139.455 163.965 C 139.457 169.919,141.149 172.274,145.049 171.751 C 148.608 171.274,149.596 169.585,149.604 163.965 L 149.609 159.766 151.367 159.766 L 153.125 159.766 153.125 164.668 C 153.125 171.194,154.065 172.873,157.662 172.771 C 160.789 172.682,161.719 170.646,161.719 163.887 L 161.719 158.595 163.249 157.017 C 167.599 152.535,166.534 144.543,161.208 141.696 C 159.614 140.844,159.203 140.817,145.801 140.704 L 132.031 140.588 132.031 131.036 L 132.031 121.484 149.023 121.484 L 166.016 121.484 166.016 111.523 L 166.016 101.563 138.672 101.563 L 111.328 101.563 111.328 152.539 M174.219 152.508 L 174.219 203.516 191.113 203.515 C 212.059 203.515,216.696 203.152,224.139 200.931 C 241.125 195.862,252.270 182.975,255.823 164.296 C 261.047 136.830,247.830 112.144,223.623 104.154 C 216.826 101.911,216.252 101.862,194.434 101.675 L 174.219 101.501 174.219 152.508 M315.820 101.831 C 272.923 107.392,253.747 157.537,282.287 189.520 C 311.534 222.297,364.840 206.648,372.331 163.086 C 378.243 128.709,349.428 97.475,315.820 101.831 M313.831 114.884 C 312.526 116.326,304.977 119.951,304.426 119.400 C 303.966 118.940,308.322 115.307,310.008 114.745 C 312.992 113.752,314.796 113.817,313.831 114.884 M332.839 115.283 C 334.574 116.029,337.860 118.911,337.447 119.323 C 336.689 120.082,328.814 116.424,327.321 114.619 C 326.559 113.698,330.162 114.131,332.839 115.283 M301.895 119.025 L 300.195 122.476 302.444 121.926 C 304.116 121.516,305.216 121.472,306.740 121.752 L 308.789 122.130 306.082 123.439 C 303.821 124.533,302.859 124.767,300.247 124.861 L 297.119 124.973 294.664 127.406 C 292.462 129.588,291.516 131.087,293.259 129.630 C 294.813 128.332,300.781 127.070,300.781 128.040 C 300.781 129.487,295.966 131.641,292.729 131.641 C 290.796 131.641,290.407 132.067,288.095 136.719 L 286.639 139.648 288.257 137.987 C 291.601 134.554,296.463 133.074,294.210 136.176 C 292.779 138.145,290.930 139.326,288.301 139.951 L 286.300 140.426 285.580 142.772 C 285.184 144.062,284.746 145.908,284.607 146.875 L 284.354 148.633 285.111 147.266 C 286.433 144.876,291.016 141.375,291.016 142.754 C 291.016 145.485,287.147 149.609,284.586 149.609 C 284.080 149.609,283.988 150.279,284.005 153.809 L 284.025 158.008 284.788 156.025 C 285.563 154.011,288.005 150.781,288.753 150.781 C 290.284 150.781,287.909 157.097,285.688 158.927 L 284.245 160.117 284.933 163.396 C 285.830 167.672,286.173 168.173,286.512 165.706 C 286.832 163.379,288.880 158.826,289.449 159.177 C 290.823 160.026,289.429 167.280,287.496 169.340 C 286.771 170.112,286.785 170.175,288.343 173.246 C 290.453 177.405,290.427 177.401,290.449 173.512 C 290.472 169.515,291.484 166.354,292.286 167.773 C 293.154 169.310,293.143 174.688,292.268 176.667 L 291.476 178.458 292.320 179.597 C 294.480 182.514,296.652 184.585,295.717 182.838 C 295.242 181.950,295.222 176.328,295.690 175.195 C 296.345 173.612,297.809 177.866,297.977 181.836 C 298.148 185.888,298.042 185.703,301.514 188.053 C 304.408 190.013,305.268 190.326,304.014 188.965 C 302.735 187.578,300.887 180.859,301.783 180.859 C 303.125 180.859,306.236 186.137,306.553 188.949 C 306.762 190.802,308.237 191.853,311.866 192.735 L 312.991 193.009 311.704 191.722 C 310.519 190.537,309.056 187.833,308.401 185.616 C 308.135 184.719,308.145 184.716,309.334 185.331 C 312.229 186.827,314.387 189.537,315.020 192.468 C 315.307 193.798,315.232 193.766,319.352 194.307 C 320.773 194.494,324.903 194.045,326.660 193.514 C 327.036 193.400,327.344 192.935,327.344 192.480 C 327.344 190.256,330.004 186.804,332.853 185.331 C 334.042 184.716,334.052 184.719,333.787 185.616 C 333.126 187.851,331.663 190.542,330.451 191.754 C 328.970 193.236,329.130 193.228,333.074 191.623 L 335.304 190.716 335.782 188.373 C 336.454 185.082,338.868 180.859,340.078 180.859 C 341.184 180.859,339.384 187.244,337.774 189.030 C 336.933 189.963,336.956 189.960,338.867 188.878 C 342.900 186.596,343.527 185.885,343.412 183.716 C 343.290 181.430,344.295 176.784,345.210 175.395 L 345.857 174.414 346.132 175.391 C 346.639 177.194,346.499 181.240,345.878 182.726 L 345.272 184.177 346.694 182.811 C 347.476 182.060,348.642 180.786,349.286 179.981 L 350.456 178.517 349.786 176.762 C 349.030 174.785,349.144 170.228,350.001 168.164 L 350.487 166.992 351.094 168.359 C 351.491 169.253,351.711 170.971,351.730 173.318 C 351.745 175.294,351.876 176.788,352.021 176.639 C 352.166 176.489,352.995 175.044,353.863 173.427 L 355.443 170.487 354.658 169.325 C 352.581 166.252,351.483 158.984,353.096 158.984 C 353.672 158.984,355.524 163.374,355.949 165.747 L 356.381 168.164 357.031 165.617 C 358.263 160.790,358.257 160.448,356.924 159.570 C 354.890 158.231,351.943 151.421,352.967 150.425 C 353.406 149.998,356.358 153.696,357.462 156.055 L 358.558 158.398 358.576 154.759 C 358.596 150.603,358.308 149.806,356.667 149.478 C 354.405 149.026,350.585 143.817,351.698 142.703 C 352.112 142.289,355.147 144.657,356.604 146.531 L 357.934 148.242 357.692 146.484 C 357.077 141.998,356.410 140.738,354.501 140.451 C 351.775 140.043,345.884 135.213,346.902 134.222 C 347.230 133.903,351.786 136.227,353.669 137.674 L 355.580 139.143 353.631 135.489 L 351.681 131.836 348.949 131.588 C 346.175 131.337,343.559 130.375,341.806 128.963 L 340.839 128.184 341.872 127.925 C 343.080 127.622,346.598 128.281,348.195 129.110 C 349.996 130.044,349.903 129.812,347.513 127.396 L 345.245 125.105 341.742 124.905 C 338.256 124.706,333.203 122.854,333.203 121.776 C 333.203 121.273,339.173 121.817,341.202 122.504 L 342.773 123.037 341.724 122.163 C 340.550 121.186,338.682 117.471,338.676 116.103 C 338.663 113.175,343.806 118.861,344.603 122.656 C 344.671 122.979,345.942 124.385,347.428 125.781 C 348.913 127.178,349.984 127.969,349.807 127.539 C 349.629 127.109,349.416 125.439,349.331 123.828 L 349.178 120.898 349.977 121.875 C 351.597 123.856,352.449 126.178,352.534 128.847 C 352.605 131.068,352.822 131.779,354.031 133.745 C 354.808 135.010,355.643 136.648,355.886 137.385 C 356.524 139.318,356.758 138.704,356.212 136.533 C 355.730 134.620,356.328 129.297,357.024 129.297 C 358.507 129.297,359.464 136.731,358.275 139.013 L 357.462 140.572 358.359 144.212 L 359.255 147.852 359.444 145.703 C 359.677 143.057,361.644 138.635,362.170 139.576 C 363.340 141.666,362.213 148.075,360.415 149.560 C 359.891 149.992,359.772 150.787,359.796 153.661 L 359.827 157.227 360.390 155.640 C 360.700 154.767,361.741 153.280,362.703 152.336 L 364.453 150.619 364.453 151.857 C 364.453 154.101,362.982 157.239,361.127 158.948 C 359.675 160.287,359.299 160.945,358.824 162.989 C 358.512 164.331,358.128 165.781,357.970 166.211 C 357.812 166.641,358.465 166.164,359.421 165.152 C 360.985 163.496,363.868 161.785,364.326 162.242 C 365.349 163.265,360.248 169.332,358.012 169.752 C 357.056 169.931,356.683 170.314,356.105 171.712 C 355.710 172.668,354.965 174.070,354.451 174.828 C 353.199 176.674,353.272 176.837,354.782 175.566 C 357.345 173.410,361.840 172.141,360.937 173.830 C 359.621 176.288,356.579 178.352,353.599 178.809 C 351.986 179.057,346.054 183.984,347.370 183.984 C 347.473 183.984,348.262 183.736,349.122 183.432 C 351.247 182.683,354.926 182.251,355.214 182.717 C 356.032 184.040,351.501 186.050,347.770 186.018 C 345.084 185.995,344.866 186.063,343.082 187.473 C 342.053 188.286,340.684 189.246,340.039 189.605 L 338.867 190.258 340.892 190.018 C 342.923 189.777,347.266 190.426,347.266 190.971 C 347.266 192.459,341.088 193.383,338.575 192.271 L 336.782 191.478 333.579 192.701 L 330.375 193.924 332.668 194.359 C 335.008 194.802,337.891 196.002,337.891 196.533 C 337.891 197.827,330.940 197.294,328.747 195.832 C 327.703 195.136,326.742 194.805,325.977 194.877 C 324.832 194.985,323.571 195.703,324.526 195.703 C 325.074 195.703,327.169 198.743,326.844 199.067 C 326.401 199.510,324.852 198.708,323.187 197.173 L 321.487 195.606 319.826 196.961 C 316.450 199.714,314.576 199.992,316.925 197.391 C 317.714 196.518,318.359 195.716,318.359 195.608 C 318.359 195.043,315.086 194.935,314.484 195.480 C 312.727 197.070,308.311 197.718,304.883 196.890 L 303.711 196.607 305.876 195.578 C 307.067 195.011,309.000 194.401,310.173 194.222 L 312.305 193.895 310.938 193.585 C 310.186 193.414,308.719 192.913,307.678 192.472 C 305.829 191.687,305.741 191.685,303.845 192.367 C 300.959 193.405,293.852 191.930,295.207 190.574 C 295.711 190.070,300.482 189.911,302.148 190.342 C 303.102 190.589,302.956 190.415,301.367 189.405 C 300.293 188.723,298.711 187.595,297.852 186.898 C 296.396 185.717,296.159 185.650,294.378 185.926 C 291.032 186.443,285.107 183.904,286.473 182.538 C 286.900 182.110,291.464 183.024,293.276 183.900 C 295.214 184.836,295.366 184.556,293.757 183.015 C 293.117 182.401,292.143 181.249,291.592 180.455 C 290.721 179.198,290.336 178.981,288.612 178.777 C 285.427 178.399,279.311 173.569,281.444 173.115 C 282.530 172.884,285.985 174.284,287.405 175.531 C 288.174 176.206,288.725 176.582,288.632 176.367 C 286.848 172.276,285.318 169.974,284.242 169.758 C 281.901 169.290,277.136 163.359,278.225 162.269 C 278.712 161.782,282.147 164.206,283.546 166.024 C 284.542 167.319,284.816 167.520,284.599 166.797 C 284.438 166.260,284.032 164.678,283.697 163.281 C 283.196 161.188,282.822 160.512,281.570 159.431 C 279.461 157.610,277.022 151.767,277.970 150.808 C 278.341 150.432,280.946 153.429,281.843 155.264 L 282.803 157.227 282.625 153.805 C 282.477 150.988,282.298 150.229,281.607 149.508 C 279.895 147.723,279.090 143.092,279.939 139.922 L 280.180 139.023 280.842 140.117 C 281.823 141.735,282.809 144.867,282.839 146.456 C 282.872 148.217,283.221 147.430,284.146 143.510 C 284.793 140.771,284.790 140.711,283.952 139.291 C 282.929 137.557,283.033 133.258,284.161 130.664 C 285.064 128.586,285.507 129.600,285.829 134.485 L 286.055 137.916 287.596 135.071 C 288.443 133.507,289.290 132.039,289.478 131.810 C 289.676 131.569,289.646 130.763,289.408 129.900 C 288.793 127.673,290.254 122.633,291.789 121.684 C 292.380 121.319,292.257 126.077,291.630 127.832 C 291.343 128.638,291.263 129.297,291.452 129.297 C 291.642 129.297,291.797 129.155,291.797 128.981 C 291.797 128.807,292.983 127.445,294.434 125.954 C 296.520 123.808,297.175 122.839,297.570 121.311 C 298.213 118.824,299.545 117.104,301.621 116.077 C 303.843 114.977,303.850 115.056,301.895 119.025 M214.956 121.042 C 229.743 124.972,237.834 139.400,235.577 157.813 C 233.136 177.726,222.936 185.899,200.488 185.931 L 195.703 185.938 195.703 152.877 L 195.703 119.817 203.809 120.026 C 210.278 120.192,212.528 120.397,214.956 121.042 M325.586 135.843 C 330.208 138.222,332.335 144.043,330.143 148.318 C 329.353 149.860,326.767 152.734,326.170 152.734 C 325.923 152.734,327.581 158.635,331.355 171.191 L 332.734 175.781 320.859 175.781 C 314.328 175.781,308.984 175.684,308.984 175.565 C 308.984 175.379,310.007 172.071,315.055 155.926 L 315.950 153.063 314.392 151.656 C 305.957 144.036,315.449 130.627,325.586 135.843 " stroke="none" fill="#f9b004" fill-rule="evenodd"></path><path id="path3" d="M127.825 217.188 C 127.825 217.939,127.905 218.247,128.004 217.871 C 128.102 217.495,128.102 216.880,128.004 216.504 C 127.905 216.128,127.825 216.436,127.825 217.188 M205.984 219.531 C 205.984 220.928,206.055 221.499,206.142 220.801 C 206.229 220.103,206.229 218.960,206.142 218.262 C 206.055 217.563,205.984 218.135,205.984 219.531 M118.614 219.043 C 118.513 219.204,119.953 219.289,121.813 219.231 C 127.779 219.047,128.449 218.888,123.558 218.818 C 120.939 218.781,118.714 218.882,118.614 219.043 M161.482 227.148 C 161.483 230.156,161.544 231.335,161.619 229.768 C 161.693 228.201,161.692 225.740,161.617 224.299 C 161.542 222.859,161.482 224.141,161.482 227.148 M240.011 230.469 C 240.011 235.303,240.067 237.280,240.135 234.863 C 240.204 232.446,240.204 228.491,240.135 226.074 C 240.067 223.657,240.011 225.635,240.011 230.469 M282.979 230.469 C 282.979 235.303,283.036 237.280,283.104 234.863 C 283.173 232.446,283.173 228.491,283.104 226.074 C 283.036 223.657,282.979 225.635,282.979 230.469 M79.058 229.883 C 79.059 232.676,79.121 233.767,79.196 232.308 C 79.272 230.849,79.271 228.564,79.195 227.230 C 79.119 225.896,79.057 227.090,79.058 229.883 M202.105 229.883 C 202.106 232.676,202.168 233.767,202.243 232.308 C 202.319 230.849,202.318 228.564,202.242 227.230 C 202.166 225.896,202.104 227.090,202.105 229.883 M205.993 227.930 C 205.995 229.648,206.063 230.303,206.146 229.384 C 206.228 228.465,206.227 227.059,206.143 226.259 C 206.059 225.459,205.992 226.211,205.993 227.930 M254.846 232.617 C 254.846 236.055,254.906 237.409,254.978 235.626 C 255.051 233.843,255.051 231.031,254.978 229.376 C 254.904 227.721,254.845 229.180,254.846 232.617 M297.813 233.203 C 297.813 236.533,297.873 237.896,297.947 236.230 C 298.020 234.565,298.020 231.841,297.947 230.176 C 297.873 228.511,297.813 229.873,297.813 233.203 M293.905 233.594 C 293.905 236.709,293.966 237.983,294.040 236.426 C 294.114 234.868,294.114 232.319,294.040 230.762 C 293.966 229.204,293.905 230.479,293.905 233.594 M197.810 233.789 C 197.811 236.797,197.872 237.976,197.947 236.409 C 198.021 234.842,198.020 232.381,197.946 230.940 C 197.871 229.499,197.810 230.781,197.810 233.789 M286.872 233.984 C 286.872 236.885,286.933 238.071,287.008 236.621 C 287.084 235.171,287.084 232.798,287.008 231.348 C 286.933 229.897,286.872 231.084,286.872 233.984 M168.067 230.664 C 168.072 231.523,168.152 231.829,168.245 231.343 C 168.338 230.857,168.335 230.154,168.237 229.781 C 168.139 229.407,168.063 229.805,168.067 230.664 M118.703 235.657 C 118.872 235.826,121.105 235.913,123.665 235.851 L 128.320 235.739 123.358 235.545 C 120.629 235.439,118.534 235.489,118.703 235.657 M177.051 236.207 C 177.427 236.305,178.042 236.305,178.418 236.207 C 178.794 236.109,178.486 236.028,177.734 236.028 C 176.982 236.028,176.675 236.109,177.051 236.207 M128.224 237.695 C 128.228 238.555,128.308 238.860,128.401 238.374 C 128.495 237.888,128.491 237.185,128.393 236.812 C 128.296 236.438,128.219 236.836,128.224 237.695 M59.863 239.342 C 60.454 239.432,61.421 239.432,62.012 239.342 C 62.603 239.253,62.119 239.180,60.938 239.180 C 59.756 239.180,59.272 239.253,59.863 239.342 M137.407 239.339 C 137.893 239.432,138.596 239.429,138.969 239.331 C 139.343 239.233,138.945 239.157,138.086 239.161 C 137.227 239.165,136.921 239.245,137.407 239.339 M307.329 239.339 C 307.815 239.432,308.518 239.429,308.891 239.331 C 309.265 239.233,308.867 239.157,308.008 239.161 C 307.148 239.165,306.843 239.245,307.329 239.339 M290.923 244.808 C 291.408 244.901,292.112 244.897,292.485 244.800 C 292.858 244.702,292.461 244.625,291.602 244.630 C 290.742 244.634,290.437 244.714,290.923 244.808 M289.942 250.586 C 289.947 251.445,290.027 251.751,290.120 251.265 C 290.213 250.779,290.210 250.076,290.112 249.702 C 290.014 249.329,289.938 249.727,289.942 250.586 M212.665 260.156 C 212.665 264.561,212.722 266.362,212.791 264.160 C 212.861 261.958,212.861 258.354,212.791 256.152 C 212.722 253.950,212.665 255.752,212.665 260.156 M229.594 254.964 C 230.080 255.057,230.783 255.054,231.157 254.956 C 231.530 254.858,231.133 254.782,230.273 254.786 C 229.414 254.790,229.108 254.870,229.594 254.964 M236.628 254.971 C 237.330 255.058,238.385 255.056,238.972 254.967 C 239.559 254.877,238.984 254.806,237.695 254.809 C 236.406 254.811,235.926 254.884,236.628 254.971 M273.828 254.958 C 274.365 255.067,274.950 255.359,275.127 255.606 C 275.343 255.906,275.398 255.860,275.293 255.469 C 275.204 255.138,274.637 254.856,273.993 254.821 C 273.010 254.767,272.987 254.787,273.828 254.958 M279.590 254.963 C 280.073 255.056,280.864 255.056,281.348 254.963 C 281.831 254.870,281.436 254.794,280.469 254.794 C 279.502 254.794,279.106 254.870,279.590 254.963 M284.473 254.957 C 284.849 255.055,285.464 255.055,285.840 254.957 C 286.216 254.859,285.908 254.778,285.156 254.778 C 284.404 254.778,284.097 254.859,284.473 254.957 M290.104 254.948 C 289.961 255.091,289.844 258.184,289.844 261.822 L 289.844 268.435 287.909 268.299 C 286.846 268.225,286.119 268.307,286.294 268.482 C 286.469 268.657,287.384 268.745,288.326 268.677 L 290.039 268.555 290.146 261.838 L 290.253 255.122 291.904 254.973 L 293.555 254.824 291.960 254.756 C 291.082 254.718,290.247 254.805,290.104 254.948 M270.815 257.227 C 270.818 258.301,270.894 258.694,270.983 258.100 C 271.073 257.506,271.071 256.627,270.978 256.147 C 270.885 255.667,270.812 256.152,270.815 257.227 M227.039 262.598 L 226.953 268.359 225.206 268.359 L 223.460 268.359 223.334 263.085 L 223.208 257.811 223.225 263.183 L 223.242 268.555 225.102 268.674 C 227.445 268.824,227.394 268.976,227.246 262.286 L 227.124 256.836 227.039 262.598 M209.474 259.570 C 209.478 260.430,209.558 260.735,209.651 260.249 C 209.745 259.763,209.741 259.060,209.643 258.687 C 209.546 258.313,209.469 258.711,209.474 259.570 M216.405 263.361 C 216.298 266.305,216.348 268.576,216.516 268.407 C 216.684 268.239,216.771 265.830,216.710 263.054 L 216.598 258.008 216.405 263.361 M146.200 260.156 C 146.200 261.123,146.276 261.519,146.369 261.035 C 146.463 260.552,146.463 259.761,146.369 259.277 C 146.276 258.794,146.200 259.189,146.200 260.156 M94.103 268.479 C 94.277 268.653,95.368 268.738,96.526 268.669 L 98.633 268.544 96.209 268.354 C 94.877 268.249,93.929 268.306,94.103 268.479 M52.844 268.647 C 53.871 268.728,55.453 268.727,56.359 268.645 C 57.266 268.563,56.426 268.497,54.492 268.498 C 52.559 268.499,51.817 268.566,52.844 268.647 M123.926 268.639 C 124.517 268.729,125.483 268.729,126.074 268.639 C 126.665 268.550,126.182 268.476,125.000 268.476 C 123.818 268.476,123.335 268.550,123.926 268.639 M168.848 268.639 C 169.438 268.729,170.405 268.729,170.996 268.639 C 171.587 268.550,171.104 268.476,169.922 268.476 C 168.740 268.476,168.257 268.550,168.848 268.639 M179.004 268.639 C 179.595 268.729,180.562 268.729,181.152 268.639 C 181.743 268.550,181.260 268.476,180.078 268.476 C 178.896 268.476,178.413 268.550,179.004 268.639 M189.160 268.639 C 189.751 268.729,190.718 268.729,191.309 268.639 C 191.899 268.550,191.416 268.476,190.234 268.476 C 189.053 268.476,188.569 268.550,189.160 268.639 M213.579 268.636 C 214.065 268.729,214.768 268.726,215.141 268.628 C 215.515 268.530,215.117 268.454,214.258 268.458 C 213.398 268.462,213.093 268.542,213.579 268.636 M276.860 268.636 C 277.346 268.729,278.049 268.726,278.423 268.628 C 278.796 268.530,278.398 268.454,277.539 268.458 C 276.680 268.462,276.374 268.542,276.860 268.636 M296.973 268.639 C 297.563 268.729,298.530 268.729,299.121 268.639 C 299.712 268.550,299.229 268.476,298.047 268.476 C 296.865 268.476,296.382 268.550,296.973 268.639 M150.098 275.280 C 150.688 275.369,151.655 275.369,152.246 275.280 C 152.837 275.190,152.354 275.117,151.172 275.117 C 149.990 275.117,149.507 275.190,150.098 275.280 " stroke="none" fill="#949cba" fill-rule="evenodd"></path><path id="path4" d="M310.008 114.745 C 308.322 115.307,303.966 118.940,304.426 119.400 C 304.504 119.478,305.781 119.087,307.264 118.532 C 314.400 115.863,316.865 112.462,310.008 114.745 M327.321 114.619 C 328.814 116.424,336.689 120.082,337.447 119.323 C 337.860 118.911,334.574 116.029,332.839 115.283 C 330.162 114.131,326.559 113.698,327.321 114.619 M301.621 116.077 C 299.545 117.104,298.213 118.824,297.570 121.311 C 297.175 122.839,296.520 123.808,294.434 125.954 C 292.983 127.445,291.797 128.807,291.797 128.981 C 291.797 129.155,291.642 129.297,291.452 129.297 C 291.263 129.297,291.343 128.638,291.630 127.832 C 292.257 126.077,292.380 121.319,291.789 121.684 C 290.254 122.633,288.793 127.673,289.408 129.900 C 289.646 130.763,289.676 131.569,289.478 131.810 C 289.290 132.039,288.443 133.507,287.596 135.071 L 286.055 137.916 285.829 134.485 C 285.507 129.600,285.064 128.586,284.161 130.664 C 283.033 133.258,282.929 137.557,283.952 139.291 C 284.790 140.711,284.793 140.771,284.146 143.510 C 283.221 147.430,282.872 148.217,282.839 146.456 C 282.809 144.867,281.823 141.735,280.842 140.117 L 280.180 139.023 279.939 139.922 C 279.090 143.092,279.895 147.723,281.607 149.508 C 282.298 150.229,282.477 150.988,282.625 153.805 L 282.803 157.227 281.843 155.264 C 280.946 153.429,278.341 150.432,277.970 150.808 C 277.022 151.767,279.461 157.610,281.570 159.431 C 282.822 160.512,283.196 161.188,283.697 163.281 C 284.032 164.678,284.438 166.260,284.599 166.797 C 284.816 167.520,284.542 167.319,283.546 166.024 C 282.147 164.206,278.712 161.782,278.225 162.269 C 277.136 163.359,281.901 169.290,284.242 169.758 C 285.318 169.974,286.848 172.276,288.632 176.367 C 288.725 176.582,288.174 176.206,287.405 175.531 C 285.985 174.284,282.530 172.884,281.444 173.115 C 279.311 173.569,285.427 178.399,288.612 178.777 C 290.336 178.981,290.721 179.198,291.592 180.455 C 292.143 181.249,293.117 182.401,293.757 183.015 C 295.366 184.556,295.214 184.836,293.276 183.900 C 291.464 183.024,286.900 182.110,286.473 182.538 C 285.107 183.904,291.032 186.443,294.378 185.926 C 296.159 185.650,296.396 185.717,297.852 186.898 C 298.711 187.595,300.293 188.723,301.367 189.405 C 302.956 190.415,303.102 190.589,302.148 190.342 C 300.482 189.911,295.711 190.070,295.207 190.574 C 293.852 191.930,300.959 193.405,303.845 192.367 C 305.741 191.685,305.829 191.687,307.678 192.472 C 308.719 192.913,310.186 193.414,310.938 193.585 L 312.305 193.895 310.173 194.222 C 309.000 194.401,307.067 195.011,305.876 195.578 L 303.711 196.607 304.883 196.890 C 308.311 197.718,312.727 197.070,314.484 195.480 C 315.086 194.935,318.359 195.043,318.359 195.608 C 318.359 195.716,317.714 196.518,316.925 197.391 C 314.576 199.992,316.450 199.714,319.826 196.961 L 321.487 195.606 323.187 197.173 C 324.852 198.708,326.401 199.510,326.844 199.067 C 327.169 198.743,325.074 195.703,324.526 195.703 C 323.571 195.703,324.832 194.985,325.977 194.877 C 326.742 194.805,327.703 195.136,328.747 195.832 C 330.940 197.294,337.891 197.827,337.891 196.533 C 337.891 196.002,335.008 194.802,332.668 194.359 L 330.375 193.924 333.579 192.701 L 336.782 191.478 338.575 192.271 C 341.088 193.383,347.266 192.459,347.266 190.971 C 347.266 190.426,342.923 189.777,340.892 190.018 L 338.867 190.258 340.039 189.605 C 340.684 189.246,342.053 188.286,343.082 187.473 C 344.866 186.063,345.084 185.995,347.770 186.018 C 351.501 186.050,356.032 184.040,355.214 182.717 C 354.926 182.251,351.247 182.683,349.122 183.432 C 348.262 183.736,347.473 183.984,347.370 183.984 C 346.054 183.984,351.986 179.057,353.599 178.809 C 356.579 178.352,359.621 176.288,360.937 173.830 C 361.840 172.141,357.345 173.410,354.782 175.566 C 353.272 176.837,353.199 176.674,354.451 174.828 C 354.965 174.070,355.710 172.668,356.105 171.712 C 356.683 170.314,357.056 169.931,358.012 169.752 C 360.248 169.332,365.349 163.265,364.326 162.242 C 363.868 161.785,360.985 163.496,359.421 165.152 C 358.465 166.164,357.812 166.641,357.970 166.211 C 358.128 165.781,358.512 164.331,358.824 162.989 C 359.299 160.945,359.675 160.287,361.127 158.948 C 362.982 157.239,364.453 154.101,364.453 151.857 L 364.453 150.619 362.703 152.336 C 361.741 153.280,360.700 154.767,360.390 155.640 L 359.827 157.227 359.796 153.661 C 359.772 150.787,359.891 149.992,360.415 149.560 C 362.213 148.075,363.340 141.666,362.170 139.576 C 361.644 138.635,359.677 143.057,359.444 145.703 L 359.255 147.852 358.359 144.212 L 357.462 140.572 358.275 139.013 C 359.464 136.731,358.507 129.297,357.024 129.297 C 356.328 129.297,355.730 134.620,356.212 136.533 C 356.758 138.704,356.524 139.318,355.886 137.385 C 355.643 136.648,354.808 135.010,354.031 133.745 C 352.822 131.779,352.605 131.068,352.534 128.847 C 352.449 126.178,351.597 123.856,349.977 121.875 L 349.178 120.898 349.331 123.828 C 349.416 125.439,349.629 127.109,349.807 127.539 C 349.984 127.969,348.913 127.178,347.428 125.781 C 345.942 124.385,344.671 122.979,344.603 122.656 C 343.806 118.861,338.663 113.175,338.676 116.103 C 338.682 117.471,340.550 121.186,341.724 122.163 L 342.773 123.037 341.202 122.504 C 339.173 121.817,333.203 121.273,333.203 121.776 C 333.203 122.854,338.256 124.706,341.742 124.905 L 345.245 125.105 347.513 127.396 C 349.903 129.812,349.996 130.044,348.195 129.110 C 346.598 128.281,343.080 127.622,341.872 127.925 L 340.839 128.184 341.806 128.963 C 343.559 130.375,346.175 131.337,348.949 131.588 L 351.681 131.836 353.631 135.489 L 355.580 139.143 353.669 137.674 C 351.786 136.227,347.230 133.903,346.902 134.222 C 345.884 135.213,351.775 140.043,354.501 140.451 C 356.410 140.738,357.077 141.998,357.692 146.484 L 357.934 148.242 356.604 146.531 C 355.147 144.657,352.112 142.289,351.698 142.703 C 350.585 143.817,354.405 149.026,356.667 149.478 C 358.308 149.806,358.596 150.603,358.576 154.759 L 358.558 158.398 357.462 156.055 C 356.358 153.696,353.406 149.998,352.967 150.425 C 351.943 151.421,354.890 158.231,356.924 159.570 C 358.257 160.448,358.263 160.790,357.031 165.617 L 356.381 168.164 355.949 165.747 C 355.524 163.374,353.672 158.984,353.096 158.984 C 351.483 158.984,352.581 166.252,354.658 169.325 L 355.443 170.487 353.863 173.427 C 352.995 175.044,352.166 176.489,352.021 176.639 C 351.876 176.788,351.745 175.294,351.730 173.318 C 351.711 170.971,351.491 169.253,351.094 168.359 L 350.487 166.992 350.001 168.164 C 349.144 170.228,349.030 174.785,349.786 176.762 L 350.456 178.517 349.286 179.981 C 348.642 180.786,347.476 182.060,346.694 182.811 L 345.272 184.177 345.878 182.726 C 346.499 181.240,346.639 177.194,346.132 175.391 L 345.857 174.414 345.210 175.395 C 344.295 176.784,343.290 181.430,343.412 183.716 C 343.527 185.885,342.900 186.596,338.867 188.878 C 336.956 189.960,336.933 189.963,337.774 189.030 C 339.384 187.244,341.184 180.859,340.078 180.859 C 338.868 180.859,336.454 185.082,335.782 188.373 L 335.304 190.716 333.074 191.623 C 329.130 193.228,328.970 193.236,330.451 191.754 C 331.663 190.542,333.126 187.851,333.787 185.616 C 334.052 184.719,334.042 184.716,332.853 185.331 C 330.004 186.804,327.344 190.256,327.344 192.480 C 327.344 192.935,327.036 193.400,326.660 193.514 C 324.903 194.045,320.773 194.494,319.352 194.307 C 315.232 193.766,315.307 193.798,315.020 192.468 C 314.387 189.537,312.229 186.827,309.334 185.331 C 308.145 184.716,308.135 184.719,308.401 185.616 C 309.056 187.833,310.519 190.537,311.704 191.722 L 312.991 193.009 311.866 192.735 C 308.237 191.853,306.762 190.802,306.553 188.949 C 306.236 186.137,303.125 180.859,301.783 180.859 C 300.887 180.859,302.735 187.578,304.014 188.965 C 305.268 190.326,304.408 190.013,301.514 188.053 C 298.042 185.703,298.148 185.888,297.977 181.836 C 297.809 177.866,296.345 173.612,295.690 175.195 C 295.222 176.328,295.242 181.950,295.717 182.838 C 296.652 184.585,294.480 182.514,292.320 179.597 L 291.476 178.458 292.268 176.667 C 293.143 174.688,293.154 169.310,292.286 167.773 C 291.484 166.354,290.472 169.515,290.449 173.512 C 290.427 177.401,290.453 177.405,288.343 173.246 C 286.785 170.175,286.771 170.112,287.496 169.340 C 289.429 167.280,290.823 160.026,289.449 159.177 C 288.880 158.826,286.832 163.379,286.512 165.706 C 286.173 168.173,285.830 167.672,284.933 163.396 L 284.245 160.117 285.688 158.927 C 287.909 157.097,290.284 150.781,288.753 150.781 C 288.005 150.781,285.563 154.011,284.788 156.025 L 284.025 158.008 284.005 153.809 C 283.988 150.279,284.080 149.609,284.586 149.609 C 287.147 149.609,291.016 145.485,291.016 142.754 C 291.016 141.375,286.433 144.876,285.111 147.266 L 284.354 148.633 284.607 146.875 C 284.746 145.908,285.184 144.062,285.580 142.772 L 286.300 140.426 288.301 139.951 C 290.930 139.326,292.779 138.145,294.210 136.176 C 296.463 133.074,291.601 134.554,288.257 137.987 L 286.639 139.648 288.095 136.719 C 290.407 132.067,290.796 131.641,292.729 131.641 C 295.966 131.641,300.781 129.487,300.781 128.040 C 300.781 127.070,294.813 128.332,293.259 129.630 C 291.516 131.087,292.462 129.588,294.664 127.406 L 297.119 124.973 300.247 124.861 C 302.859 124.767,303.821 124.533,306.082 123.439 L 308.789 122.130 306.740 121.752 C 305.216 121.472,304.116 121.516,302.444 121.926 L 300.195 122.476 301.895 119.025 C 303.850 115.056,303.843 114.977,301.621 116.077 " stroke="none" fill="#b97404" fill-rule="evenodd"></path></g></svg>